<svg width="167.872559" height="100.000000" viewBox="0 0 167.873 100" fill="none" xmlns="http://www.w3.org/2000/svg" xmlns:xlink="http://www.w3.org/1999/xlink">
	<desc>
			Created with Pixso.
	</desc>
	<defs/>
	<path id="Vector" d="M111.03 0C120.18 4.58 122.44 15.4 116.63 25.69C117.86 27.18 119.2 28.32 121.31 28.8C124.5 29.52 127.57 30.76 130.72 31.69C131.49 31.92 132.37 31.79 133.2 31.87C133.67 31.91 134.22 31.88 134.59 32.12C143.59 37.81 152.56 43.52 161.54 49.24C161.68 49.33 161.76 49.53 162.13 50.06C159.28 50.14 156.83 51.35 154.09 49.92C149.99 47.78 145.75 45.94 141.57 43.97C141.19 43.79 140.85 43.52 140.65 42.91L148.72 45.67C148.77 45.55 148.83 45.44 148.88 45.32C146.76 43.75 144.64 42.17 142.52 40.6C140.43 39.06 138.35 37.51 136.25 35.99C135.1 35.16 134.12 34.18 132.34 34.77C131.54 35.03 130.32 34.23 129.37 33.76C126.95 32.57 124.5 31.57 121.75 31.78C119.42 31.96 117.57 31.18 116.08 29.4C115.63 28.88 115.06 28.46 114.32 27.79C112.4 29.63 110.45 31.4 108.64 33.29C107.66 34.32 106.67 34.69 105.27 34.45C103.64 34.18 101.98 34.1 100.34 34.06C99.66 34.04 98.48 34.2 98.4 34.51C98.17 35.33 98.15 36.44 98.54 37.15C99.8 39.41 101.28 41.54 102.68 43.73C102.84 43.99 102.95 44.28 102.83 44.95C102.03 44.48 101.13 44.11 100.46 43.5C98.48 41.72 96.52 39.92 94.7 37.99C90.8 33.85 86.24 30.58 81.42 27.62C80.91 27.31 80.29 27.16 79.72 26.95C79.63 27.1 79.54 27.25 79.44 27.4L86.8 33.97C86.69 34.15 86.57 34.33 86.46 34.51C85.76 34.21 85 34.02 84.36 33.62C81.19 31.65 78.15 29.44 74.86 27.68C70.28 25.22 65.53 23.08 60.68 20.71C58.71 25.07 55.42 28.89 56.41 34.14C56.97 37.11 56.09 39.56 53.6 41.42C52.98 41.88 52.54 42.59 52.04 43.4C53.99 41.94 55.59 43.14 57.21 43.86C61.24 45.67 65.25 47.51 69.27 49.34C69.25 49.53 69.24 49.72 69.23 49.91C68.65 49.91 68.04 50.04 67.52 49.88C66.01 49.42 64.55 48.75 63.03 48.33C62.05 48.05 61.01 46.78 59.96 48.3C59.9 48.39 59.38 48.17 59.08 48.08C58.9 48.03 58.71 47.97 58.54 47.87C54.47 45.49 50.47 44.89 46.65 48.39C46.54 48.48 46.31 48.45 45.77 48.54C47.29 45.57 48.7 42.81 50.11 40.05C50.03 39.94 49.94 39.82 49.85 39.71C48.76 40.47 47.54 41.1 46.61 42.02C44.81 43.79 42.93 45.58 41.53 47.64C39.56 50.56 36.93 50.42 34.1 50.07C33.5 48.54 36.44 47.5 34.43 45.86C35.79 44.14 37.16 42.42 38.52 40.69C38.41 40.59 38.31 40.48 38.2 40.37C37.38 41.23 36.49 42.03 35.76 42.96C33.26 46.15 29.75 48.03 26.27 49.76C24.62 50.58 22.34 50.14 20.01 50.29C20.23 49 20.4 48.06 20.56 47.1C17.08 46.02 14.92 48.27 12.66 50.32C12.55 50.17 12.44 50.03 12.32 49.88C13.47 48.3 14.62 46.72 15.87 45.01C13.44 44.08 12.92 46.79 11.19 46.66C10.35 46.76 9.41 46.66 8.68 47C6.84 47.85 5.09 48.9 3.3 49.85C2.84 50.09 2.34 50.27 1.86 50.49C1.76 50.33 1.66 50.18 1.57 50.02C6.96 46.03 12.35 42.03 17.83 37.97C17.6 37.64 17.38 37.34 17.13 36.99C17.39 36.78 17.57 36.61 17.78 36.47C21.49 33.94 25.3 31.52 28.9 28.84C30.92 27.34 33.03 27.49 34.87 28.41C37.26 29.61 39.19 29.7 41.17 27.87C44.43 24.85 48.95 24.51 52.72 22.56C54.91 21.43 57.19 20.44 59.5 19.57C60.27 19.28 61.35 19.3 62.14 19.6C64.03 20.31 65.79 21.37 67.68 22.11C70.55 23.23 73.47 24.22 76.4 25.19C76.89 25.35 77.57 25.24 78.06 25.02C79.82 24.25 81.19 24.79 82.56 25.94C83.81 26.99 85.36 27.74 86.51 28.89C88.37 30.73 90.23 30.51 92.49 29.37C89.53 26.93 87.11 24.21 85.97 20.03C93.51 30.69 104.75 29.03 110.51 24.32C117.79 18.36 118.05 9.71 111.01 0L111.03 0ZM32.14 32.44C34.46 34.26 35.09 32.15 36.5 31.12C35.47 30.49 34.67 29.89 33.78 29.49C31.84 28.64 28.86 29.86 28.73 31.54C28.56 33.85 28.51 36.15 28.42 38.32C30.49 37.34 31.27 35.01 32.14 32.43L32.14 32.44Z" fill="#FFFFFF" fill-opacity="1.000000" fill-rule="nonzero"/>
	<path id="Vector" d="M103.58 82.89C103.58 81.16 103.5 79.53 103.61 77.91C103.7 76.48 102.85 76.37 101.83 76.34C100.83 76.32 99.73 76.09 99.71 77.7C99.69 79.39 99.56 81.08 99.47 82.91L90.21 82.91L90.21 62.75C92.9 62.75 95.74 62.7 98.56 62.82C98.93 62.84 99.5 63.69 99.57 64.21C99.8 65.75 99.83 67.32 99.94 69.01L103.6 69.01C103.6 67.41 103.65 65.9 103.58 64.4C103.53 63.23 103.8 62.66 105.16 62.77C107.37 62.96 109.59 62.92 111.8 63.1C112.25 63.14 113.04 63.69 113.04 64.01C113.12 70.25 113.09 76.48 113.09 82.88L103.57 82.88L103.58 82.89Z" fill="#FFFFFF" fill-opacity="1.000000" fill-rule="nonzero"/>
	<path id="Vector" d="M158.82 75.53C156.07 77.76 153.53 79.81 150.99 81.89C148.81 83.68 146.31 83.03 143.89 82.78C143.63 82.75 143.28 81.68 143.29 81.1C143.35 76.68 143.51 72.26 143.58 67.84C143.6 66.21 143.44 64.58 143.35 62.65C145.93 62.65 148.38 62.6 150.82 62.72C151.1 62.73 151.52 63.65 151.56 64.16C151.76 66.54 151.84 68.92 151.98 71.59C155.05 68.72 157.86 66.1 160.69 63.48C161.53 62.7 166.52 62.15 167.41 62.81C167.72 63.03 167.88 63.65 167.87 64.1C167.82 69.78 167.75 75.47 167.6 81.14C167.58 81.65 167.04 82.57 166.71 82.58C163.95 82.7 161.18 82.65 158.21 82.65C158.41 80.31 158.61 78.03 158.82 75.53Z" fill="#FFFFFF" fill-opacity="1.000000" fill-rule="nonzero"/>
	<path id="Vector" d="M46.08 82.74C43.01 82.87 40.36 83.05 37.71 83.05C37.26 83.05 36.56 82.3 36.41 81.77C35.93 80.13 34.96 79.57 33.32 79.8C32.58 79.89 31.8 79.88 31.05 79.8C29.14 79.56 27.71 79.93 27.26 82.13C27.18 82.53 26.41 83.05 25.94 83.07C23.61 83.17 21.28 83.11 18.48 83.11C19.51 80.93 20.32 79.25 21.09 77.56C23.15 73.09 25.24 68.63 27.21 64.12C27.69 63.02 28.27 62.52 29.47 62.63C30.41 62.72 31.39 62.78 32.32 62.62C34.76 62.21 36.05 63.27 37.11 65.44C39.56 70.49 42.28 75.41 44.9 80.38C45.25 81.03 45.56 81.7 46.08 82.75L46.08 82.74ZM34.27 74.13C33.6 72.7 33.07 71.62 32.4 70.21C31.75 71.6 31.27 72.63 30.69 73.88C31.99 73.97 32.96 74.04 34.27 74.13Z" fill="#FFFFFF" fill-opacity="1.000000" fill-rule="nonzero"/>
	<path id="Vector" d="M88.81 83.09C85.69 83.09 83.09 83.18 80.51 83.02C79.95 82.99 79.18 82.18 78.96 81.56C78.47 80.23 77.74 79.63 76.3 79.8C75.43 79.91 74.52 79.89 73.64 79.79C71.71 79.55 70.32 79.98 69.89 82.15C69.81 82.53 69.13 83.05 68.71 83.06C66.33 83.15 63.94 83.11 61.08 83.11C62.17 80.82 63.03 79.1 63.83 77.35C65.83 72.99 67.86 68.63 69.77 64.24C70.27 63.12 70.87 62.78 72.13 62.58C76.65 61.86 79.27 63.49 81 67.83C82.8 72.31 85.45 76.45 87.72 80.75C88.01 81.29 88.24 81.86 88.81 83.1L88.81 83.09ZM76.97 74.17C76.21 72.63 75.67 71.57 75.01 70.25C74.38 71.56 73.91 72.55 73.32 73.8C74.57 73.92 75.52 74.02 76.97 74.17L76.97 74.17Z" fill="#FFFFFF" fill-opacity="1.000000" fill-rule="nonzero"/>
	<path id="Vector" d="M141.94 82.74C139.03 82.87 136.45 83.07 133.88 83.03C133.33 83.02 132.49 82.23 132.3 81.64C131.82 80.18 131 79.62 129.49 79.8C128.62 79.9 127.71 79.88 126.83 79.79C125 79.61 123.65 79.97 123.2 82.07C123.11 82.5 122.24 83.03 121.71 83.06C119.44 83.17 117.17 83.11 114.57 83.11C114.9 82.19 115.03 81.73 115.23 81.3C117.87 75.57 120.56 69.86 123.14 64.1C123.64 62.99 124.23 62.63 125.41 62.62C131.44 62.56 131.43 62.54 134.2 67.82C136.52 72.24 138.84 76.65 141.15 81.07C141.38 81.5 141.57 81.95 141.93 82.74L141.94 82.74ZM126.55 73.88L130.13 73.88C129.52 72.6 129.02 71.56 128.37 70.2C127.69 71.57 127.2 72.56 126.55 73.88Z" fill="#FFFFFF" fill-opacity="1.000000" fill-rule="nonzero"/>
	<path id="Vector" d="M14.29 82.92L5.6 82.92L5.6 69.65L0 69.65C0.25 67.56 0.46 65.53 0.79 63.53C0.84 63.23 1.51 62.82 1.89 62.82C7.91 62.77 13.93 62.78 19.95 62.78C20.06 62.78 20.16 62.9 20.42 63.06C19.98 65.02 19.58 67.05 19.02 69.03C18.93 69.35 18.14 69.6 17.65 69.64C16.53 69.73 15.4 69.67 14.3 69.67L14.3 82.93L14.29 82.92Z" fill="#FFFFFF" fill-opacity="1.000000" fill-rule="nonzero"/>
	<path id="Vector" d="M56.91 69.68L56.91 82.87L48.16 82.87C48.16 81.32 48.11 79.83 48.17 78.33C48.37 73.67 48.57 69.01 48.86 64.35C48.9 63.81 49.53 62.86 49.91 62.85C54.2 62.75 58.5 62.78 63.08 62.78C62.6 64.97 62.2 67.04 61.64 69.06C61.56 69.38 60.75 69.63 60.27 69.67C59.14 69.76 58.02 69.7 56.91 69.7L56.91 69.68Z" fill="#FFFFFF" fill-opacity="1.000000" fill-rule="nonzero"/>
	<path id="Vector" d="M133.75 99.77L133.75 90.76C135.39 90.66 136.97 90.43 138.54 90.49C140.02 90.54 140.99 92.16 140.91 94.06C140.83 96.02 139.61 97.49 137.91 97.61C137.35 97.65 136.78 97.57 136.1 97.53C135.95 98.8 136.3 100.64 133.75 99.77L133.75 99.77ZM135.37 93.99C136.09 94.88 136.52 95.4 136.94 95.92C137.46 95.27 138.27 94.67 138.41 93.94C138.5 93.48 137.61 92.83 137.16 92.26C136.66 92.75 136.15 93.24 135.37 93.99Z" fill="#FFFFFF" fill-opacity="1.000000" fill-rule="nonzero"/>
	<path id="Vector" d="M129.22 92.31L125.53 92.31C125.59 91.8 125.59 90.99 125.7 90.97C127.16 90.79 128.68 90.47 130.09 90.73C130.77 90.85 131.64 92.04 131.76 92.85C132.39 97.07 131.33 98.15 127.07 97.59C126.3 97.5 125.33 96.56 125.04 95.8C124.61 94.67 125.35 93.73 126.55 93.38C127.43 93.12 128.36 92.99 129.26 92.8C129.25 92.64 129.24 92.48 129.23 92.32L129.22 92.31Z" fill="#FFFFFF" fill-opacity="1.000000" fill-rule="nonzero"/>
	<path id="Vector" d="M61.67 92.32L57.91 92.32C58.08 91.71 58.2 90.84 58.36 90.83C59.9 90.73 61.54 90.51 62.98 90.9C63.62 91.07 63.94 92.56 64.3 93.49C64.45 93.87 64.33 94.37 64.33 94.81C64.33 97.35 64.33 97.33 61.81 97.26C61.32 97.25 60.85 97.57 60.36 97.62C59.07 97.77 57.87 97.54 57.51 96.08C57.13 94.58 57.86 93.65 59.32 93.27C60.08 93.08 60.87 92.97 61.66 92.82C61.66 92.66 61.66 92.49 61.67 92.32Z" fill="#FFFFFF" fill-opacity="1.000000" fill-rule="nonzero"/>
	<path id="Vector" d="M22.58 90.74L24.94 90.74L24.94 95.56C26.66 96.19 27.41 95.77 27.29 94.05C27.21 92.94 27.27 91.83 27.27 90.66L29.46 90.66C29.51 91.23 29.54 91.71 29.6 92.2C29.83 94.03 30.13 95.85 30.26 97.68C30.29 98.15 29.8 98.66 29.54 99.15C29.09 98.85 28.66 98.5 28.18 98.28C27.51 97.98 26.81 97.59 26.12 97.57C22.01 97.45 22.64 98.05 22.59 94.05C22.58 93 22.59 91.93 22.59 90.73L22.58 90.74Z" fill="#FFFFFF" fill-opacity="1.000000" fill-rule="nonzero"/>
	<path id="Vector" d="M18.19 92.34L14.76 92.34C14.2 91.22 14.54 90.59 15.71 90.51C16.72 90.44 17.74 90.43 18.74 90.55C20.04 90.71 20.74 91.52 20.77 92.87C20.77 92.93 20.78 92.99 20.77 93.05C20.64 94.52 21.02 96.53 20.22 97.29C19.39 98.06 17.37 97.81 15.94 97.56C15.17 97.43 14.17 96.46 14 95.71C13.86 95.09 14.62 93.98 15.29 93.54C16.07 93.03 17.18 93.02 18.14 92.79C18.16 92.64 18.17 92.49 18.19 92.34L18.19 92.34Z" fill="#FFFFFF" fill-opacity="1.000000" fill-rule="nonzero"/>
	<path id="Vector" d="M110.42 90.82C110.42 92.69 110.48 94.58 110.36 96.44C110.34 96.82 109.63 97.45 109.24 97.45C108.88 97.45 108.32 96.82 108.2 96.36C108.02 95.68 108.15 94.92 108.15 93.6C107.15 94.97 106.57 95.93 105.8 96.71C105.38 97.14 104.64 97.4 104.05 97.41C103.83 97.41 103.43 96.47 103.4 95.95C103.32 94.21 103.37 92.46 103.37 90.56C104.27 90.63 104.87 90.67 105.56 90.72C105.62 91.71 105.67 92.56 105.73 93.56C107.4 92.77 107.52 89.8 110.42 90.81L110.42 90.82Z" fill="#FFFFFF" fill-opacity="1.000000" fill-rule="nonzero"/>
	<path id="Vector" d="M36.14 93.9C35.33 95.01 34.84 95.92 34.13 96.61C33.66 97.06 32.89 97.21 32.25 97.5C32.05 96.98 31.69 96.46 31.66 95.92C31.59 94.24 31.63 92.55 31.63 90.7C32.37 90.65 32.96 90.62 33.77 90.58C33.86 91.59 33.93 92.5 34.02 93.53C35.63 92.73 35.78 89.73 38.51 90.82L38.51 97.26C37.25 97.54 36.45 96.42 36.13 93.92L36.14 93.9Z" fill="#FFFFFF" fill-opacity="1.000000" fill-rule="nonzero"/>
	<path id="Vector" d="M85.25 94.81C85.25 95.41 85.41 96.03 85.21 96.49C85.01 96.93 84.47 97.4 84.01 97.47C83.71 97.53 83 96.93 82.98 96.59C82.88 94.65 82.93 92.71 82.93 90.67L85.06 90.67C85.16 91.32 85.26 91.98 85.39 92.79L87.48 92.79C87.56 92.13 87.64 91.46 87.73 90.7L89.85 90.7L89.85 97.4C89.2 97.44 88.56 97.47 87.78 97.53C87.68 96.58 87.6 95.79 87.5 94.81L85.25 94.81Z" fill="#FFFFFF" fill-opacity="1.000000" fill-rule="nonzero"/>
	<path id="Vector" d="M144.78 94.65C144.71 95.53 144.8 96.08 144.59 96.47C144.35 96.91 143.84 97.47 143.46 97.47C143.06 97.46 142.37 96.85 142.34 96.46C142.22 94.59 142.29 92.71 142.29 90.71L144.53 90.71C144.59 91.53 144.65 92.31 144.75 93.66C145.43 92.83 145.76 92.29 146.22 91.9C146.81 91.41 147.47 90.95 148.17 90.64C148.4 90.54 149.11 90.89 149.17 91.13C149.25 91.54 149.11 92.34 148.86 92.44C146.52 93.35 147.61 94.55 148.48 95.77C148.8 96.21 149.06 96.68 149.41 97.23C146.79 98.43 146.29 96.03 144.78 94.66L144.78 94.65Z" fill="#FFFFFF" fill-opacity="1.000000" fill-rule="nonzero"/>
	<path id="Vector" d="M51.43 94.87C51.39 95.42 51.49 96.05 51.26 96.51C51.04 96.94 50.5 97.4 50.05 97.46C49.74 97.5 49.06 96.89 49.04 96.54C48.94 94.61 49 92.67 49 90.67L51.17 90.67C51.27 91.38 51.36 92.04 51.45 92.72C53.33 93.42 53.9 92.58 53.71 90.8C55.26 90.32 56.21 90.45 56.05 92.39C55.95 93.51 55.96 94.66 56.05 95.79C56.17 97.39 55.47 97.83 53.9 97.37C53.35 96.39 54.34 93.76 51.42 94.86L51.43 94.87Z" fill="#FFFFFF" fill-opacity="1.000000" fill-rule="nonzero"/>
	<path id="Vector" d="M43.89 97.71C41.51 97.74 40.11 96.48 40.05 94.24C39.99 91.86 41.37 90.41 43.72 90.39C46.09 90.37 47.64 91.83 47.62 94.07C47.61 96.28 46.17 97.68 43.89 97.71ZM45.78 94.18C44.97 93.27 44.52 92.32 43.92 92.2C42.65 91.96 42.32 93.13 42.5 94.05C42.62 94.75 43.33 95.33 43.78 95.97C44.34 95.46 44.92 94.96 45.79 94.17L45.78 94.18Z" fill="#FFFFFF" fill-opacity="1.000000" fill-rule="nonzero"/>
	<path id="Vector" d="M67.04 90.69L72.99 90.69C72.99 92.73 73.04 94.67 72.94 96.6C72.92 96.93 72.2 97.52 71.89 97.47C71.44 97.39 70.81 96.9 70.72 96.49C70.54 95.65 70.77 94.72 70.62 93.86C70.53 93.32 70.1 92.83 69.82 92.32C69.55 92.79 69.2 93.23 69.01 93.72C68.61 94.76 68.48 95.97 67.84 96.8C67.47 97.29 66.32 97.19 65.51 97.35C65.71 96.69 65.89 96.02 66.11 95.36C66.32 94.73 66.64 94.11 66.76 93.46C66.92 92.55 66.95 91.62 67.04 90.68L67.04 90.69Z" fill="#FFFFFF" fill-opacity="1.000000" fill-rule="nonzero"/>
	<path id="Vector" d="M123.51 90.69C123.51 92.67 123.57 94.56 123.46 96.43C123.44 96.82 122.74 97.46 122.37 97.46C121.97 97.46 121.29 96.85 121.25 96.45C121.11 95.15 121.2 93.83 121.2 92.39C120.39 92.34 119.78 92.31 118.87 92.26C118.87 93.51 118.81 94.63 118.89 95.74C119.01 97.29 118.41 97.86 116.71 97.38L116.71 90.7L123.5 90.7L123.51 90.69Z" fill="#FFFFFF" fill-opacity="1.000000" fill-rule="nonzero"/>
	<path id="Vector" d="M7.86 94.83C7.83 95.42 7.93 95.98 7.74 96.4C7.53 96.85 7.04 97.45 6.66 97.45C6.26 97.45 5.54 96.85 5.51 96.48C5.39 94.61 5.46 92.73 5.46 90.72L7.66 90.72C7.73 91.39 7.8 92 7.88 92.77L9.93 92.77C10.12 91.5 10.11 89.83 12.45 90.89C12.45 92.67 12.51 94.55 12.4 96.42C12.38 96.81 11.69 97.44 11.31 97.44C10.92 97.44 10.17 96.78 10.19 96.44C10.29 94.72 9.54 94.32 7.84 94.82L7.86 94.83Z" fill="#FFFFFF" fill-opacity="1.000000" fill-rule="nonzero"/>
	<path id="Vector" d="M74.89 90.68L77.06 90.68C76.91 92.49 77.77 93.08 79.51 92.94C80.71 92.85 81.52 93.65 81.61 94.92C81.7 96.25 81.05 97.18 79.76 97.38C78.46 97.57 77.12 97.55 75.79 97.48C75.48 97.47 74.94 96.9 74.93 96.56C74.85 94.63 74.89 92.7 74.89 90.67L74.89 90.68Z" fill="#FFFFFF" fill-opacity="1.000000" fill-rule="nonzero"/>
	<path id="Vector" d="M91.92 97.47L91.92 90.66L93.97 90.66C94.07 91.3 94.17 91.9 94.29 92.67C94.96 92.76 95.69 92.84 96.42 92.92C97.74 93.07 98.53 93.76 98.52 95.12C98.5 96.44 97.74 97.31 96.47 97.43C95.04 97.56 93.59 97.46 91.92 97.46L91.92 97.47Z" fill="#FFFFFF" fill-opacity="1.000000" fill-rule="nonzero"/>
	<path id="Vector" d="M99.16 90.69L101.48 90.69C101.48 92.66 101.54 94.55 101.43 96.42C101.4 96.81 100.74 97.44 100.36 97.44C99.97 97.44 99.24 96.85 99.22 96.49C99.1 94.61 99.16 92.73 99.16 90.69Z" fill="#FFFFFF" fill-opacity="1.000000" fill-rule="nonzero"/>
	<path id="Vector" d="M153.45 62.58L158.57 62.58C156.84 64.21 155.48 65.48 153.74 67.11C153.63 65.38 153.55 64.12 153.46 62.58L153.45 62.58Z" fill="#FFFFFF" fill-opacity="1.000000" fill-rule="nonzero"/>
	<path id="Vector" d="M109.22 87.44C109.38 89.32 108.46 89.89 107.15 89.96C105.7 90.04 104.56 89.6 104.22 88.04C104.36 87.89 104.47 87.7 104.52 87.71C105.37 88.03 106.22 88.64 107.05 88.61C107.79 88.58 108.51 87.86 109.23 87.44L109.22 87.44Z" fill="#FFFFFF" fill-opacity="1.000000" fill-rule="nonzero"/>
</svg>
