<svg width="241.572510" height="100.000092" viewBox="0 0 241.573 100" fill="none" xmlns="http://www.w3.org/2000/svg" xmlns:xlink="http://www.w3.org/1999/xlink">
	<desc>
			Created with Pixso.
	</desc>
	<defs/>
	<path id="Vector" d="M121.48 97.24C145.11 97.33 168.71 96.41 192.23 94.08C196.45 93.66 197.78 91.73 196.94 87.55C196.07 83.16 195.13 78.77 194.35 74.35C194.22 73.62 194.82 72.77 195.08 71.96C195.59 72.63 196.38 73.23 196.56 73.98C197.6 78.43 198.51 82.9 199.43 87.37C200.51 92.55 197.95 96.08 192.67 96.53C161.34 99.17 129.98 100.9 98.53 99.49C82.89 98.79 67.26 97.63 51.63 96.67C50.83 96.62 50.03 96.55 49.23 96.43C44.74 95.71 42.31 92.47 43.15 88.02C44.04 83.21 45.07 78.44 46.18 73.68C46.33 73.03 47.2 72.55 47.74 71.99C47.97 72.73 48.52 73.52 48.39 74.2C47.61 78.54 46.74 82.86 45.79 87.16C44.79 91.69 46.05 93.82 50.72 94.11C69.49 95.26 88.25 96.28 107.02 97.21C111.82 97.46 116.66 97.25 121.48 97.25L121.48 97.24Z" fill="#FFFFFF" fill-opacity="1.000000" fill-rule="nonzero"/>
	<path id="Vector" d="M119.3 2.36C98.23 2.23 75.05 3.45 51.91 5.44C51.19 5.5 50.47 5.59 49.75 5.69C46.49 6.19 44.98 8.19 45.6 11.44C46.47 16 47.5 20.54 48.32 25.11C48.47 25.92 47.93 26.85 47.71 27.73C47.14 27.01 46.25 26.38 46.06 25.58C45.06 21.38 44.29 17.12 43.37 12.9C42.1 7.08 44.6 3.84 50.48 3.24C80.99 0.15 111.59 -0.47 142.2 0.29C159.3 0.72 176.35 2.25 193.42 3.4C197.73 3.69 200.35 7.29 199.56 11.5C198.61 16.61 197.54 21.7 196.42 26.78C196.28 27.4 195.5 27.86 195.03 28.39C194.74 27.7 194.11 26.94 194.21 26.31C194.94 21.97 195.77 17.64 196.7 13.34C197.92 7.67 196.77 5.99 191.02 5.48C167.88 3.44 144.71 2.28 119.31 2.36L119.3 2.36Z" fill="#FFFFFF" fill-opacity="1.000000" fill-rule="nonzero"/>
	<path id="Vector" d="M163.17 68.67C161.02 68.24 158.95 67.97 156.99 67.35C156.32 67.15 155.49 66.05 155.5 65.36C155.53 60.33 155.88 55.31 155.87 50.28C155.87 45.41 155.52 40.55 155.45 35.68C155.45 35.08 156.08 34.15 156.65 33.92C160.92 32.2 165.27 32.13 169.52 33.92C170.15 34.19 170.74 35.35 170.74 36.11C170.81 45.78 170.81 55.45 170.7 65.11C170.7 65.9 169.91 67.12 169.23 67.35C167.29 68.01 165.2 68.27 163.17 68.67ZM164.18 50.75C164.18 46.67 164.23 42.59 164.13 38.51C164.12 37.83 163.46 37.15 163.1 36.48C162.77 37.11 162.13 37.74 162.13 38.37C162.07 46.54 162.08 54.7 162.16 62.87C162.16 63.48 162.83 64.09 163.19 64.7C163.52 64.06 164.12 63.42 164.13 62.77C164.23 58.77 164.18 54.77 164.18 50.76L164.18 50.75Z" fill="#FFFFFF" fill-opacity="1.000000" fill-rule="nonzero"/>
	<path id="Vector" d="M238.29 48.14C241.19 49.43 241.29 51.49 241.27 53.75C241.23 57.35 241.52 60.94 241.44 64.54C241.42 65.39 240.52 66.87 239.89 66.94C235.93 67.42 231.94 67.63 227.96 67.77C227.58 67.78 226.86 66.69 226.8 66.08C226.64 64.25 226.72 62.4 226.72 60.56C226.72 52.41 226.78 44.24 226.68 36.08C226.66 33.93 227.29 32.95 229.56 33.17C232.82 33.48 236.11 33.58 239.35 33.94C241.19 34.15 241.8 35.27 241.49 37.21C241.18 39.16 241.06 41.23 241.36 43.18C241.75 45.59 241.68 47.47 238.28 48.12L238.29 48.14ZM233.71 47.78C233.47 47.87 233.23 47.96 233 48.05C233 53.04 232.97 58.03 233.04 63.03C233.04 63.4 233.67 63.76 234.01 64.11C234.36 63.66 235.01 63.22 235.03 62.77C235.1 58.39 235.11 53.99 234.99 49.61C234.98 48.98 234.17 48.39 233.71 47.78ZM235.53 40.32C235.03 39.11 234.42 37.07 234.13 37.11C232.08 37.41 233.03 39.22 233.02 40.38C233.01 41.52 232.09 43.37 234.21 43.57C234.53 43.6 235.04 41.56 235.53 40.32Z" fill="#FFFFFF" fill-opacity="1.000000" fill-rule="nonzero"/>
	<path id="Vector" d="M91.68 48.2C95.45 49.48 94.8 51.98 94.87 54.26C94.97 57.76 95.23 61.28 95.25 64.79C95.25 65.46 94.55 66.67 94.08 66.73C89.89 67.21 85.68 67.53 81.47 67.76C81.14 67.78 80.51 66.75 80.47 66.19C80.33 64.52 80.41 62.83 80.41 61.14C80.41 52.74 80.47 44.34 80.37 35.93C80.35 33.9 80.92 32.93 83.09 33.16C86.58 33.53 90.1 33.71 93.58 34.15C95.09 34.34 95.52 35.32 95.23 36.96C94.87 38.99 94.61 41.19 95.02 43.15C95.54 45.64 95.38 47.37 91.68 48.18L91.68 48.2ZM87.52 47.76L86.56 48.15C86.56 53 86.52 57.84 86.61 62.69C86.61 63.19 87.3 63.66 87.69 64.15C88.03 63.61 88.68 63.06 88.69 62.51C88.78 58.36 88.79 54.21 88.66 50.07C88.64 49.28 87.92 48.52 87.52 47.76ZM89.31 40.51C88.66 39.23 88.09 38.1 87.52 36.96C87.2 38.15 86.64 39.33 86.59 40.54C86.56 41.63 85.75 43.38 87.69 43.58C88.08 43.63 88.67 41.76 89.31 40.51Z" fill="#FFFFFF" fill-opacity="1.000000" fill-rule="nonzero"/>
	<path id="Vector" d="M70.07 68.68C67.84 68.24 65.78 67.94 63.78 67.42C62.46 67.08 62.06 66.23 62.31 64.68C62.7 62.26 62.67 59.75 62.68 57.29C62.72 51.53 62.71 45.78 62.7 40.02C62.7 39.06 62.82 38.02 62.48 37.17C61.51 34.7 62.82 33.82 64.87 33.32C68.53 32.43 72.2 32.29 75.76 33.67C76.53 33.97 77.55 35.02 77.55 35.73C77.55 41.31 77.25 46.9 77.24 52.48C77.24 56.78 77.55 61.08 77.58 65.39C77.58 66.04 76.85 67.09 76.24 67.27C74.21 67.91 72.08 68.24 70.06 68.68L70.07 68.68ZM71.04 50.6C71.04 46.52 71.09 42.44 71 38.34C70.99 37.7 70.36 37.08 70.02 36.45C69.65 37.06 68.97 37.65 68.96 38.25C68.9 46.41 68.91 54.59 68.98 62.76C68.98 63.41 69.59 64.05 69.93 64.69C70.3 64 70.97 63.32 71 62.62C71.1 58.62 71.04 54.62 71.04 50.6Z" fill="#FFFFFF" fill-opacity="1.000000" fill-rule="nonzero"/>
	<path id="Vector" d="M112.74 51.72C112.74 56.21 112.59 60.7 112.8 65.18C112.94 68.05 111.3 67.87 109.32 67.99C107.02 68.13 106.42 67.21 106.5 65.07C106.64 61.56 106.54 58.03 106.53 54.5C106.53 53.78 106.61 53.02 106.4 52.36C106.24 51.86 105.67 51.5 105.29 51.08C104.99 51.54 104.42 51.99 104.41 52.45C104.34 56.62 104.41 60.78 104.31 64.95C104.29 65.88 103.94 67.54 103.5 67.63C101.99 67.93 100.33 67.83 98.8 67.54C98.45 67.47 98.2 66.02 98.2 65.21C98.15 56.75 98.16 48.27 98.14 39.8C98.14 39 98.15 38.19 98.05 37.4C97.63 34.29 97.75 33.65 100.87 33.33C104.23 32.97 107.69 33.28 111.08 33.58C112.61 33.72 113.35 34.66 113.06 36.66C112.61 39.89 112.81 43.21 112.76 46.48C112.74 48.24 112.76 49.99 112.76 51.75L112.74 51.75L112.74 51.72ZM104.38 41.59C104.38 42.94 104.29 44.32 104.44 45.66C104.49 46.11 105.16 46.51 105.56 46.92C105.88 46.54 106.46 46.17 106.47 45.79C106.53 43.07 106.51 40.35 106.42 37.65C106.4 37.24 105.82 36.85 105.51 36.44C105.14 36.88 104.5 37.29 104.45 37.76C104.3 39.02 104.41 40.32 104.41 41.59L104.38 41.59Z" fill="#FFFFFF" fill-opacity="1.000000" fill-rule="nonzero"/>
	<path id="Vector" d="M216.3 68.66C214.21 68.24 212.13 67.99 210.17 67.37C209.51 67.16 208.68 66.03 208.68 65.33C208.7 60.47 209.03 55.61 209.03 50.75C209.03 45.73 208.71 40.71 208.67 35.69C208.67 35.05 209.43 34.06 210.06 33.82C214.18 32.22 218.4 32.23 222.5 33.82C223.18 34.07 223.85 35.33 223.85 36.14C223.94 45.8 223.94 55.46 223.84 65.12C223.84 65.91 223.07 67.13 222.4 67.37C220.45 68.02 218.37 68.27 216.3 68.68L216.3 68.66ZM217.47 50.49C217.47 46.4 217.51 42.33 217.42 38.25C217.41 37.65 216.7 37.06 216.32 36.47C215.96 37.07 215.29 37.67 215.28 38.28C215.21 46.44 215.21 54.59 215.28 62.75C215.28 63.39 215.89 64.02 216.23 64.66C216.63 64.01 217.39 63.37 217.41 62.71C217.51 58.64 217.47 54.56 217.47 50.49Z" fill="#FFFFFF" fill-opacity="1.000000" fill-rule="nonzero"/>
	<path id="Vector" d="M184.96 48.09C188.02 49.47 188.17 51.46 188.17 53.64C188.17 57.32 188.46 61 188.4 64.68C188.4 65.46 187.51 66.82 186.9 66.89C182.86 67.37 178.79 67.62 174.73 67.76C174.37 67.77 173.67 66.47 173.65 65.77C173.53 62.56 173.59 59.36 173.59 56.16C173.59 49.35 173.66 42.56 173.57 35.76C173.55 33.74 174.27 32.99 176.24 33.17C179.58 33.47 182.95 33.57 186.28 33.98C188.16 34.21 188.86 35.31 188.4 37.41C187.98 39.32 187.92 41.45 188.31 43.37C188.79 45.84 188.39 47.42 184.98 48.08L184.96 48.09ZM180.82 47.77C180.5 47.85 180.17 47.94 179.85 48.02C179.85 53.02 179.82 58.01 179.89 63C179.89 63.39 180.52 63.77 180.86 64.15C181.22 63.7 181.87 63.26 181.88 62.8C181.95 58.48 181.96 54.17 181.85 49.85C181.84 49.14 181.18 48.46 180.82 47.77ZM182.43 40.53C181.87 39.21 181.38 38.06 180.9 36.93C180.52 38.1 179.86 39.27 179.85 40.43C179.84 41.52 180.51 42.62 180.88 43.71C181.37 42.7 181.85 41.71 182.43 40.53Z" fill="#FFFFFF" fill-opacity="1.000000" fill-rule="nonzero"/>
	<path id="Vector" d="M137.76 64.17C137.76 62.95 137.77 62.01 137.76 61.07C137.61 52.75 137.42 44.45 137.39 36.13C137.39 35.47 138.41 34.3 139.05 34.22C143 33.75 147 33.46 150.98 33.33C151.39 33.32 152.22 34.81 152.24 35.63C152.36 40.6 152.3 45.56 152.3 50.52C152.3 55.48 152.21 60.46 152.37 65.41C152.45 68.01 150.98 67.94 149.15 67.94C147.38 67.94 146.09 67.9 146.14 65.46C146.26 57.29 146.18 49.12 146.17 40.95C146.17 40.47 146.28 39.96 146.15 39.52C145.87 38.62 145.46 37.76 145.1 36.89C144.73 37.74 144.04 38.57 144.02 39.42C143.94 46.3 143.98 53.19 143.99 60.08C143.99 61.92 143.91 63.77 143.99 65.61C144.08 67.4 143.29 68.06 141.56 67.96C140.21 67.87 138.84 67.93 137.47 67.92C136.1 67.92 134.72 68.16 134.61 66.01C134.51 63.8 135.89 64.03 137.75 64.17L137.76 64.17Z" fill="#FFFFFF" fill-opacity="1.000000" fill-rule="nonzero"/>
	<path id="Vector" d="M202.55 46.65C206.3 47.44 206.26 49.19 206.07 51.66C205.71 56.34 205.91 61.1 206.12 65.8C206.19 67.48 205.72 68.01 204.19 67.92C203.87 67.9 203.55 67.92 203.23 67.92C200.92 67.91 199.76 66.78 199.75 64.51C199.75 60.67 199.79 56.83 199.7 52.97C199.69 52.34 199.11 51.72 198.79 51.1C198.37 51.75 197.61 52.38 197.6 53.03C197.49 57.2 197.44 61.36 197.58 65.51C197.66 67.98 196.23 67.96 194.49 67.94C192.79 67.93 191.36 68.05 191.38 65.55C191.49 55.55 191.49 45.57 191.38 35.57C191.36 33.06 192.8 33.2 194.49 33.18C196.24 33.16 197.67 33.13 197.56 35.62C197.39 39.35 197.51 43.08 197.51 46.82C197.82 46.94 198.14 47.05 198.45 47.17C198.88 46.37 199.63 45.58 199.68 44.76C199.84 41.97 199.88 39.15 199.71 36.36C199.57 34 200.28 33.02 202.8 33.15C206.12 33.32 206.11 33.17 205.95 36.56C205.88 37.91 205.92 39.28 205.92 40.64C205.92 42.94 206.39 45.41 202.55 46.66L202.55 46.65Z" fill="#FFFFFF" fill-opacity="1.000000" fill-rule="nonzero"/>
	<path id="Vector" d="M6.59 50.64C6.59 54.64 6.55 58.65 6.64 62.66C6.66 63.35 7.33 64.03 7.68 64.72C8.04 64.02 8.67 63.34 8.72 62.62C8.86 60.55 8.83 58.46 8.76 56.38C8.67 53.74 10.55 54.28 12.09 54.22C13.61 54.17 14.98 54.08 14.98 56.33C14.98 59.36 15.32 62.39 15.34 65.42C15.34 66.03 14.73 67 14.17 67.21C9.89 68.87 5.53 68.92 1.24 67.27C0.64 67.04 0.08 65.84 0.07 65.07C-0.02 55.4 -0.03 45.73 0.05 36.05C0.05 35.3 0.66 34.13 1.28 33.89C5.55 32.16 9.9 32.19 14.17 33.94C14.74 34.18 15.37 35.11 15.36 35.71C15.33 39.15 15.02 42.57 15.01 46.01C15.01 48.08 14.18 48.46 12.33 48.07C8.79 47.32 8.76 47.39 8.76 43.71C8.76 41.87 8.86 40.02 8.71 38.19C8.66 37.59 7.96 37.03 7.56 36.45C7.23 37.02 6.64 37.59 6.63 38.15C6.55 42.32 6.58 46.48 6.58 50.65L6.59 50.64Z" fill="#FFFFFF" fill-opacity="1.000000" fill-rule="nonzero"/>
	<path id="Vector" d="M122.08 60.37C122.08 62.26 122.01 64 122.09 65.71C122.22 68.34 120.36 67.87 118.81 67.92C117.19 67.98 115.8 68.04 115.83 65.66C115.91 55.59 115.88 45.51 115.84 35.42C115.84 33.78 116.48 33.04 118.12 33.17C121.63 33.45 125.14 33.61 128.64 34.01C130.42 34.22 130.78 35.3 130.7 37.26C130.44 43.81 130.44 50.38 130.75 56.92C130.85 59.06 130.24 60.07 128.46 60.3C126.51 60.55 124.49 60.35 122.07 60.35L122.08 60.37ZM124.18 46.91C124.18 44.11 124.24 41.32 124.13 38.54C124.11 37.99 123.48 37.47 123.14 36.94C122.79 37.48 122.15 38.02 122.14 38.56C122.06 43.99 122.06 49.42 122.14 54.85C122.14 55.33 122.89 55.81 123.3 56.29C123.59 55.81 124.12 55.33 124.13 54.84C124.22 52.2 124.17 49.57 124.17 46.94L124.18 46.91Z" fill="#FFFFFF" fill-opacity="1.000000" fill-rule="nonzero"/>
	<path id="Vector" d="M51.17 60.35C51.17 62.47 51.17 64.22 51.17 65.97C51.17 68.68 49.1 67.78 47.67 67.91C46.21 68.04 44.98 67.91 44.99 65.85C45.05 55.69 44.99 45.55 45.07 35.39C45.07 34.67 45.92 33.32 46.35 33.33C50.18 33.41 54.02 33.61 57.83 34.04C59.54 34.23 59.92 35.32 59.82 37.31C59.52 43.85 59.54 50.43 59.89 56.97C60.01 59.15 59.34 60.08 57.57 60.3C55.62 60.54 53.6 60.35 51.17 60.35ZM53.3 46.83C53.3 44.12 53.37 41.41 53.25 38.7C53.23 38.1 52.56 37.52 52.18 36.93C51.85 37.5 51.25 38.05 51.25 38.62C51.18 43.96 51.18 49.31 51.25 54.64C51.25 55.17 51.91 55.7 52.26 56.24C52.6 55.65 53.23 55.08 53.27 54.48C53.38 51.93 53.31 49.38 53.31 46.82L53.3 46.83Z" fill="#FFFFFF" fill-opacity="1.000000" fill-rule="nonzero"/>
	<path id="Vector" d="M17.87 50.07C17.87 44.96 17.84 39.84 17.93 34.73C17.93 34.21 18.65 33.33 19.13 33.26C20.46 33.05 21.87 33.04 23.19 33.26C23.7 33.35 24.41 34.31 24.42 34.89C24.5 37.21 24.21 39.53 24.36 41.82C24.41 42.57 25.38 43.27 25.95 43.97C25.98 44.02 26.1 44.02 26.18 44.04C28.31 44.68 31.2 44.7 32.33 46.13C33.38 47.44 32.51 50.24 32.56 52.4C32.68 56.54 32.95 60.68 32.94 64.82C32.94 65.56 31.91 66.84 31.25 66.93C27.3 67.39 23.32 67.64 19.34 67.76C18.94 67.76 18.15 66.39 18.14 65.65C18.04 60.46 18.08 55.26 18.08 50.06C18.01 50.06 17.95 50.06 17.88 50.06L17.87 50.07ZM25.35 47.76C25 47.87 24.65 47.99 24.29 48.1C24.29 52.88 24.26 57.66 24.34 62.43C24.34 63.02 24.98 63.59 25.32 64.18C25.71 63.57 26.4 62.97 26.41 62.36C26.51 58.28 26.51 54.2 26.39 50.13C26.37 49.33 25.71 48.54 25.35 47.74L25.35 47.76Z" fill="#FFFFFF" fill-opacity="1.000000" fill-rule="nonzero"/>
	<path id="Vector" d="M35.48 50.97C35.48 45.62 35.53 40.27 35.44 34.93C35.42 33.63 35.84 33.27 37.03 33.18C41.7 32.79 41.84 32.9 41.81 37.44C41.79 46.54 41.81 55.66 41.8 64.76C41.8 67.91 41.78 67.79 38.81 67.97C36.43 68.11 35.53 67.37 35.63 64.88C35.81 60.25 35.69 55.61 35.69 50.97C35.62 50.97 35.55 50.97 35.47 50.97L35.48 50.97Z" fill="#FFFFFF" fill-opacity="1.000000" fill-rule="nonzero"/>
	<path id="Vector" d="M148.87 78.25C151.87 78.25 152.18 78.58 152.12 81.44C152.12 81.68 152.12 81.92 152.16 82.15C152.74 85.55 152.31 85.98 148.94 86.08C146.97 86.14 146.1 85.48 146.32 83.48C146.41 82.69 146.39 81.88 146.32 81.09C146.1 78.95 146.86 77.85 148.87 78.25ZM150.42 81.85C150.06 82.02 149.7 82.2 149.33 82.38C148.83 82.82 148.32 83.26 147.82 83.7C148.25 84.13 148.75 84.94 149.1 84.88C149.81 84.76 150.7 84.32 151.04 83.73C151.27 83.36 150.65 82.49 150.42 81.84L150.42 81.85ZM150.95 80.58C150.93 80.36 150.91 80.14 150.89 79.93C150.29 79.76 149.66 79.39 149.1 79.47C148.65 79.52 148.27 80.14 147.88 80.5C148.42 80.78 148.96 81.27 149.52 81.32C149.99 81.35 150.49 80.85 150.96 80.59L150.95 80.58Z" fill="#FFFFFF" fill-opacity="1.000000" fill-rule="nonzero"/>
	<path id="Vector" d="M123.97 22.54C121.86 22.57 120.07 20.74 120.05 18.52C120.01 16.26 121.69 14.38 123.79 14.31C126.05 14.23 127.74 15.98 127.81 18.45C127.87 20.66 126.14 22.5 123.98 22.54L123.97 22.54ZM126.75 17.81C125.82 17.07 124.97 15.85 123.96 15.7C122.15 15.43 121.58 17 121.59 18.53C121.6 19.99 122.2 21.25 123.94 21.23C125.79 21.21 126.25 19.86 126.76 17.81L126.75 17.81Z" fill="#FFFFFF" fill-opacity="1.000000" fill-rule="nonzero"/>
	<path id="Vector" d="M120.58 82.74C119.23 83.97 118.14 84.96 117.06 85.94C116.86 85.81 116.66 85.66 116.46 85.52C116.87 84.75 117.28 83.98 117.75 83.09C117.45 82.64 116.86 82.15 116.82 81.62C116.75 80.74 116.82 79.19 117.23 79.04C118.59 78.55 120.13 78.44 121.59 78.47C121.93 78.47 122.45 79.67 122.5 80.35C122.63 82.1 122.55 83.89 122.55 85.66C122.24 85.69 121.94 85.72 121.64 85.76C121.36 84.95 121.07 84.14 120.6 82.74L120.58 82.74ZM119.85 78.89C119.04 79.62 118.52 80.08 118.01 80.54C118.58 80.95 119.11 81.58 119.73 81.68C120.13 81.73 120.94 81.06 121.03 80.61C121.11 80.22 120.42 79.67 119.85 78.89Z" fill="#FFFFFF" fill-opacity="1.000000" fill-rule="nonzero"/>
	<path id="Vector" d="M144.51 21.77C142.13 20.52 139.77 20.48 137.43 21.67C138.38 19.43 139.31 17.17 140.33 14.96C140.41 14.77 141.47 14.74 141.53 14.89C142.57 17.16 143.52 19.47 144.5 21.79L144.51 21.77Z" fill="#FFFFFF" fill-opacity="1.000000" fill-rule="nonzero"/>
	<path id="Vector" d="M105.51 85.57C104.49 84.46 103.8 83.08 102.77 82.73C100.22 81.9 101.48 85.05 99.82 85.9L99.82 78.62C100.88 80.35 101.39 82.36 104.16 81.05C104.38 80.31 104.65 79.45 104.92 78.59L105.52 78.63L105.52 85.55L105.51 85.57Z" fill="#FFFFFF" fill-opacity="1.000000" fill-rule="nonzero"/>
	<path id="Vector" d="M137.45 85.46C138.39 83.21 139.3 80.96 140.34 78.75C140.38 78.64 141.82 78.83 141.97 79.18C142.92 81.24 143.68 83.38 144.3 85.94C142.09 83.49 140.06 82.45 138.07 86.3C137.86 86.03 137.65 85.74 137.45 85.46Z" fill="#FFFFFF" fill-opacity="1.000000" fill-rule="nonzero"/>
	<path id="Vector" d="M168.96 85.71C167.02 83.94 165.17 83.94 163.4 85.72C163.18 85.63 162.97 85.55 162.75 85.46C163.68 83.19 164.6 80.91 165.61 78.68C165.67 78.54 166.86 78.61 166.97 78.84C167.95 81 168.82 83.24 169.73 85.45C169.47 85.54 169.22 85.62 168.96 85.71Z" fill="#FFFFFF" fill-opacity="1.000000" fill-rule="nonzero"/>
	<path id="Vector" d="M114.11 85.74C112.2 84.13 110.08 84.01 107.76 85.38C108.7 83.16 109.63 80.91 110.65 78.73C110.72 78.59 111.89 78.64 112 78.88C113.01 81.05 113.91 83.28 114.84 85.49C114.6 85.57 114.35 85.66 114.11 85.74Z" fill="#FFFFFF" fill-opacity="1.000000" fill-rule="nonzero"/>
	<path id="Vector" d="M110.55 20.28C110.7 21.7 109.4 22.29 107.83 22.5C105.75 22.77 104.12 21.4 103.82 19.29C103.47 16.87 104.6 14.81 106.65 14.44C108.34 14.14 109.95 14.29 110.53 16.8C108.67 16.13 106.7 14.29 105.6 16.94C105.17 17.96 105.52 20.29 106.09 20.51C107.3 20.98 108.89 20.43 110.55 20.27L110.55 20.28Z" fill="#FFFFFF" fill-opacity="1.000000" fill-rule="nonzero"/>
	<path id="Vector" d="M101.38 22.55C99.71 22.26 96.79 22.32 96.61 21.63C96.04 19.53 96.18 17.05 96.79 14.94C96.97 14.36 99.78 14.54 101.38 14.38C101.41 14.68 101.44 14.99 101.47 15.3C100.9 15.4 100.31 15.45 99.78 15.64C99.05 15.91 98.35 16.3 97.64 16.64C98.3 17.01 98.94 17.44 99.63 17.75C100.03 17.93 100.51 17.94 101.02 18.6C100.33 18.71 99.6 18.7 99 18.96C98.47 19.19 98.09 19.76 97.64 20.18C98.08 20.52 98.48 21.04 98.98 21.17C99.78 21.38 100.64 21.33 101.48 21.39C101.45 21.79 101.4 22.17 101.37 22.56L101.38 22.55Z" fill="#FFFFFF" fill-opacity="1.000000" fill-rule="nonzero"/>
	<path id="Vector" d="M156.8 80.92C158.05 79.95 159.13 79.11 160.2 78.27C160.39 78.46 160.56 78.64 160.75 78.83C159.93 79.79 159.12 80.76 158.25 81.79C159.2 83.05 160.1 84.23 160.98 85.41C160.79 85.61 160.61 85.82 160.41 86.01C159.28 85.02 158.16 84.02 156.85 82.86C156.5 83.99 156.22 84.89 155.95 85.78C155.73 85.75 155.52 85.71 155.3 85.68L155.3 78.61L155.92 78.51C156.2 79.25 156.46 80 156.8 80.91L156.8 80.92Z" fill="#FFFFFF" fill-opacity="1.000000" fill-rule="nonzero"/>
	<path id="Vector" d="M129.36 86.33C129.77 83.87 130.26 82.06 130.35 80.22C130.46 78.39 131.42 78.17 132.89 78.23C134.31 78.29 135.75 78.12 135.62 80.24C135.52 82.06 135.48 83.87 135.42 85.69C135.02 85.69 134.61 85.67 134.21 85.67C134.21 84.23 134.33 82.79 134.15 81.37C134.07 80.69 133.42 80.08 133.02 79.43C132.61 80.06 132.01 80.63 131.8 81.32C131.48 82.37 131.56 83.57 131.17 84.59C130.92 85.23 130.1 85.64 129.36 86.33Z" fill="#FFFFFF" fill-opacity="1.000000" fill-rule="nonzero"/>
	<path id="Vector" d="M91.13 85.76C91.13 83.6 90.91 81.39 91.28 79.29C91.38 78.77 93.41 78.26 94.49 78.37C95.38 78.45 96.6 79.28 96.91 80.07C97.17 80.69 96.37 82.46 95.85 82.54C93.78 82.86 92.08 83.3 92.19 86.18C91.84 86.04 91.48 85.9 91.13 85.77L91.13 85.76ZM96.48 80.69C95.23 80.02 94.67 79.49 94.13 79.51C93.6 79.52 93.09 80.1 92.58 80.44C92.99 80.88 93.37 81.65 93.82 81.69C94.44 81.74 95.11 81.25 96.48 80.69Z" fill="#FFFFFF" fill-opacity="1.000000" fill-rule="nonzero"/>
	<path id="Vector" d="M130.14 21.91C130.14 19.64 129.94 17.35 130.33 15.16C130.4 14.74 132.91 14.42 134.16 14.68C134.89 14.83 135.87 16.28 135.8 17.06C135.73 17.83 134.44 19.1 133.74 19.07C131.53 18.95 131.42 20.66 130.83 22.04C130.6 21.99 130.38 21.96 130.14 21.91ZM135.28 16.88C134.01 16.27 133.38 15.73 132.76 15.75C132.3 15.75 131.86 16.47 131.42 16.88C131.86 17.3 132.3 18.05 132.75 18.05C133.37 18.05 134 17.5 135.28 16.88Z" fill="#FFFFFF" fill-opacity="1.000000" fill-rule="nonzero"/>
	<path id="Vector" d="M88.07 22.02C88.07 19.8 87.85 17.53 88.23 15.38C88.32 14.89 90.56 14.43 91.72 14.61C92.54 14.74 93.66 15.91 93.74 16.69C93.81 17.45 92.79 18.89 92.08 19.01C90.22 19.31 88.81 19.69 89.31 22.44C88.89 22.31 88.47 22.17 88.07 22.03L88.07 22.02ZM90.84 18.66C91.57 17.84 92.04 17.33 92.49 16.81C91.9 16.43 91.32 15.82 90.69 15.75C90.32 15.71 89.55 16.51 89.53 16.97C89.5 17.4 90.2 17.89 90.84 18.66Z" fill="#FFFFFF" fill-opacity="1.000000" fill-rule="nonzero"/>
	<path id="Vector" d="M77.76 80.73C76.01 79.69 74.29 78.22 73.17 80.32C72.61 81.37 72.75 83.54 73.49 84.39C75.08 86.21 76.38 84.36 77.72 83.23C78.11 84.85 77.37 85.67 75.98 86.08C73.78 86.74 71.93 85.72 71.34 83.54C70.66 81.05 71.71 78.78 73.75 78.29C75.9 77.77 77.23 78.44 77.75 80.72L77.76 80.73Z" fill="#FFFFFF" fill-opacity="1.000000" fill-rule="nonzero"/>
	<path id="Vector" d="M152.44 22.13C150.85 21.16 152.16 18.74 149.58 18.8C147.06 18.85 148.31 21.18 146.73 22.28C146.06 19.59 146.35 17.24 146.48 14.59C147.68 15.91 148.36 17.3 149.43 17.69C151.66 18.53 151.07 15.82 152.45 14.61L152.45 22.14L152.44 22.13Z" fill="#FFFFFF" fill-opacity="1.000000" fill-rule="nonzero"/>
	<path id="Vector" d="M81.51 78.49C81.58 80.65 82.61 81.42 84.62 81.53C85.28 81.56 86.35 83.05 86.33 83.85C86.3 84.59 85.17 85.75 84.35 85.92C80.97 86.65 80.51 86.18 80.51 82.73C80.51 81.37 80.51 80.02 80.51 78.67C80.85 78.61 81.19 78.55 81.51 78.49ZM85.76 83.9C84.62 83.18 84.09 82.55 83.59 82.59C83 82.62 82.45 83.24 81.88 83.6C82.29 84.04 82.67 84.81 83.12 84.85C83.75 84.9 84.44 84.41 85.76 83.9Z" fill="#FFFFFF" fill-opacity="1.000000" fill-rule="nonzero"/>
	<path id="Vector" d="M76.66 18.31C75.19 19.26 74.29 20.3 73.54 20.21C72.77 20.11 71.59 18.86 71.63 18.18C71.66 17.44 72.88 16.27 73.66 16.21C74.41 16.15 75.25 17.26 76.66 18.33L76.66 18.31Z" fill="#FFFFFF" fill-opacity="1.000000" fill-rule="nonzero"/>
	<path id="Vector" d="M115.65 22.24C113.71 19.89 116.77 16.2 112.89 14.72L118.8 14.72C114.69 16.31 117.27 19.81 115.65 22.24Z" fill="#FFFFFF" fill-opacity="1.000000" fill-rule="nonzero"/>
	<path id="Vector" d="M170.48 18.45C169.03 19.33 168.03 20.41 167.4 20.22C166.54 19.97 165.98 18.75 165.28 17.94C166.07 17.32 166.86 16.22 167.66 16.21C168.41 16.21 169.17 17.34 170.48 18.45Z" fill="#FFFFFF" fill-opacity="1.000000" fill-rule="nonzero"/>
	<path id="Vector" d="M87.43 86.27L87.43 78.36C88.81 80.03 88.87 83.98 87.43 86.27Z" fill="#FFFFFF" fill-opacity="1.000000" fill-rule="nonzero"/>
</svg>
