<svg width="162.843750" height="100.000000" viewBox="0 0 162.844 100" fill="none" xmlns="http://www.w3.org/2000/svg" xmlns:xlink="http://www.w3.org/1999/xlink">
	<desc>
			Created with Pixso.
	</desc>
	<defs/>
	<path id="Vector" d="M139.03 71.78C132.06 71.72 126.28 69.08 121.57 63.97C116.63 58.62 114.96 52.2 115.65 45.19C116.7 34.39 126.29 23.77 140.25 24.38C153.09 24.94 161.34 34.92 162.57 44.22C163.59 51.88 161.73 58.99 156.12 64.7C151.46 69.44 145.74 71.84 139.03 71.77L139.03 71.78ZM139.14 42.19C136.42 41.83 134.48 44.36 134.42 47.13C134.37 49.17 136.99 51.8 139.11 51.67C141.38 51.53 143.76 50.19 143.64 46.5C143.55 43.83 141.9 42.18 139.14 42.18L139.14 42.19Z" fill="#CF2C37" fill-opacity="1.000000" fill-rule="nonzero"/>
	<path id="Vector" d="M15.9 25.1C18.87 25.1 21.84 25.12 24.81 25.1C27.25 25.08 29.69 25.14 32.14 25.01C34.05 24.92 35.96 25.09 37.86 25.12C38.49 25.12 38.42 25.53 38.42 25.93C38.42 28.34 38.42 30.74 38.42 33.15C38.42 34 38.37 34.86 38.44 35.71C38.52 36.56 38.12 36.7 37.4 36.68C35.78 36.65 34.16 36.65 32.55 36.65C28.85 36.65 25.15 36.66 21.44 36.63C20.73 36.63 20.53 36.83 20.56 37.52C20.61 38.8 20.6 40.09 20.56 41.37C20.54 42 20.63 42.29 21.4 42.28C24.9 42.24 28.41 42.32 31.91 42.28C32.8 42.27 33 42.54 32.99 43.39C32.94 46.46 32.94 49.52 32.99 52.59C33.01 53.52 32.83 53.91 31.76 53.88C28.35 53.8 24.94 53.88 21.54 53.83C20.74 53.82 20.52 54.07 20.56 54.83C20.64 55.95 20.58 57.07 20.63 58.19C20.66 59 20.99 59.44 21.97 59.43C25.87 59.39 29.76 59.5 33.67 59.43C35.03 59.41 36.39 59.58 37.76 59.47C38.28 59.43 38.44 59.64 38.44 60.15C38.42 63.55 38.41 66.94 38.44 70.34C38.44 71.14 37.96 71.04 37.47 71.04C32.01 71.04 26.56 71.04 21.1 71.04C18.95 71.04 16.8 71.04 14.66 71.04C10.26 71.05 5.87 71.07 1.47 71.07C0.18 71.07 0.18 71.07 0.18 69.79C0.18 65.87 0.18 61.95 0.16 58.03C0.14 55.81 -0.08 53.58 0.02 51.38C0.11 49.48 0.17 47.58 0.18 45.69C0.18 40.5 0.21 35.32 0.16 30.14C0.16 28.77 0.23 27.42 0.16 26.07C0.13 25.3 0.4 25.14 1.12 25.15C5.85 25.19 10.58 25.19 15.3 25.2C15.51 25.2 15.7 25.2 15.9 25.2C15.9 25.18 15.9 25.16 15.9 25.14L15.9 25.1Z" fill="#CF2C37" fill-opacity="1.000000" fill-rule="nonzero"/>
	<path id="Vector" d="M44.53 48.02C44.53 40.75 44.55 33.47 44.52 26.19C44.52 25.27 44.75 25.08 45.69 25.08C51.7 25.15 57.72 25.14 63.73 25.1C64.68 25.1 64.93 25.32 64.93 26.29C64.92 30.83 65.02 35.38 65.02 39.92C65.02 46.07 64.97 52.23 64.89 58.38C64.88 59.22 65.07 59.5 65.97 59.49C70.48 59.43 74.99 59.47 79.5 59.45C80.21 59.45 80.92 59.48 81.65 59.32C82.12 59.21 82.79 59.32 82.78 60.24C82.73 63.6 82.75 66.96 82.8 70.32C82.8 71.13 82.33 71.03 81.83 71.02C77.47 71.02 73.11 71.02 68.75 71.02C61.05 71.02 53.35 71.01 45.64 71.04C44.8 71.04 44.52 70.85 44.52 69.96C44.57 64.76 44.54 59.55 44.54 54.34C44.54 52.23 44.54 50.12 44.54 48.02L44.53 48.02Z" fill="#CF2C37" fill-opacity="1.000000" fill-rule="nonzero"/>
	<path id="Vector" d="M99.12 40.44C96.02 40.44 92.91 40.42 89.81 40.46C89.1 40.46 88.92 40.26 88.92 39.57C88.95 35.03 88.95 30.49 88.92 25.95C88.92 25.23 89.17 25.08 89.84 25.08C96.07 25.1 102.31 25.1 108.55 25.08C109.17 25.08 109.34 25.26 109.33 25.87C109.3 30.44 109.3 35.02 109.33 39.6C109.33 40.32 109.09 40.47 108.42 40.46C105.32 40.42 102.21 40.44 99.11 40.45L99.12 40.44Z" fill="#199046" fill-opacity="1.000000" fill-rule="nonzero"/>
	<path id="Vector" d="M99.08 71.02C96 71.02 92.93 71 89.85 71.04C89.16 71.04 88.96 70.83 88.96 70.14C88.98 65.66 88.98 61.18 88.96 56.71C88.96 56.04 89.12 55.81 89.83 55.81C96.08 55.84 102.32 55.84 108.57 55.81C109.15 55.81 109.38 55.94 109.38 56.57C109.34 61.15 109.32 65.72 109.34 70.3C109.34 70.98 109.04 71.04 108.5 71.03C105.36 71.01 102.22 71.03 99.08 71.03L99.08 71.02Z" fill="#CF2C37" fill-opacity="1.000000" fill-rule="nonzero"/>
	<path id="Vector" d="M100.31 4.32C100.16 4.52 99.77 4.36 99.68 4.77C102.39 5.42 104.53 6.93 106.04 9.32C105.88 8.16 104.86 7.51 104.37 6.53C107.25 5.92 109.21 7.8 109.29 10.55C109.42 14.36 108.18 17.57 104.96 19.81C102.63 21.41 99.93 22.01 97.26 21.33C93.49 20.37 90.83 17.93 89.49 14.22C88.86 12.44 88.46 10.62 89.08 8.75C89.72 6.8 90.65 5.01 92.42 3.8C94.26 2.53 98.4 2.81 100.31 4.33L100.31 4.32Z" fill="#CF2C37" fill-opacity="1.000000" fill-rule="nonzero"/>
	<path id="Vector" d="M3.17 93.78C3.17 95.65 3.14 97.37 3.18 99.08C3.2 99.79 2.9 99.97 2.24 99.99C1.47 100.02 1.58 99.55 1.58 99.09C1.58 96.75 1.61 94.42 1.57 92.08C1.55 90.16 1.45 88.24 1.58 86.32C1.63 85.76 1.48 85.42 0.83 85.53C0.18 85.66 0.16 85.26 0.14 84.78C0.11 84.25 0.31 84.05 0.82 84.12C1.63 84.23 2.62 83.73 3.11 84.93C3.28 85.34 3.65 84.96 3.82 84.8C5.71 82.97 10.83 83.43 11.52 87.13C11.7 88.06 12.13 88.94 12.07 89.94C11.93 92.3 10.84 94.13 8.84 95.35C7.33 96.27 4.57 95.49 3.16 93.79L3.17 93.78ZM10.27 89.61C10.41 89.04 10.12 88.41 9.9 87.76C9.44 86.41 8.32 85.39 7.16 85.33C5.35 85.23 3.87 85.9 3.45 87.42C2.91 89.34 2.86 91.32 4.21 93.05C5.18 94.28 6.76 94.44 8.18 93.71C9.87 92.85 10.21 91.41 10.28 89.62L10.27 89.61Z" fill="#199046" fill-opacity="1.000000" fill-rule="nonzero"/>
	<path id="Vector" d="M161.35 90.37C161.35 91.3 161.36 92.22 161.35 93.14C161.35 93.72 161.48 94.13 162.17 94.02C162.73 93.93 162.83 94.23 162.83 94.71C162.83 95.18 162.67 95.36 162.19 95.36C161.21 95.33 160.17 95.51 159.68 94.3C159.57 94.02 159.43 94.06 158.9 94.5C157.22 95.88 155.31 96.03 153.55 94.86C152.52 94.18 151.96 93.18 152.16 91.94C152.34 90.85 152.69 89.86 153.9 89.34C155.53 88.63 157.22 88.35 158.96 88.35C159.64 88.35 159.81 88.12 159.74 87.48C159.65 86.62 159.48 85.74 158.62 85.44C157.51 85.06 156.32 84.88 155.22 85.54C155.06 85.64 154.86 85.85 154.87 86C154.97 87.16 153.94 86.59 153.49 86.88C153.35 86.97 153.17 86.65 153.13 86.39C152.96 85.4 153.46 84.54 154.5 84.16C156.34 83.51 158.22 83.57 159.93 84.43C161.03 84.98 161.13 86.31 161.28 87.41C161.41 88.38 161.3 89.39 161.3 90.37C161.3 90.37 161.32 90.37 161.33 90.37L161.35 90.37ZM158.4 89.64C157.91 89.66 157.42 89.66 156.92 89.73C156.41 89.81 155.9 89.93 155.41 90.08C154.24 90.47 153.5 91.63 153.79 92.55C154.16 93.79 155.66 94.59 156.87 94.25C158.39 93.83 159.14 92.79 159.55 91.33C159.99 89.75 159.96 89.63 158.4 89.64Z" fill="#199046" fill-opacity="1.000000" fill-rule="nonzero"/>
	<path id="Vector" d="M107.43 93.49C106.36 95.07 104.99 95.69 103.27 95.59C101.77 95.5 100.26 94.49 99.81 92.76C99.53 91.66 100.34 90.05 101.63 89.35C102.8 88.71 104.08 88.44 105.43 88.48C107.42 88.53 107.7 88.15 107.08 86.23C106.96 85.82 106.67 85.52 106.29 85.39C105.28 85.07 104.24 84.99 103.2 85.29C102.68 85.44 102.31 85.67 102.35 86.31C102.4 86.96 101.92 86.92 101.48 86.93C101.02 86.93 100.76 86.82 100.72 86.27C100.66 85.45 101.04 84.84 101.61 84.41C102.74 83.57 106.96 83.5 108.05 84.9C108.89 85.98 108.98 87.19 109.04 88.4C109.13 89.97 109.06 91.55 109.05 93.13C109.05 93.73 109.21 94.1 109.88 94.02C110.29 93.98 110.51 94.1 110.47 94.56C110.45 94.92 110.53 95.35 110.02 95.4C108.55 95.54 107.56 95.62 107.41 93.49L107.43 93.49ZM104.02 94.21C105.91 94.21 107.64 92.03 107.32 90.08C107.26 89.71 107.07 89.7 106.79 89.68C105.67 89.62 104.56 89.71 103.48 89.95C102.05 90.29 101.4 91.23 101.56 92.58C101.67 93.55 102.67 94.21 104.02 94.22L104.02 94.21Z" fill="#199046" fill-opacity="1.000000" fill-rule="nonzero"/>
	<path id="Vector" d="M74.86 93.84C73.77 95.08 72.53 95.73 70.87 95.63C69.3 95.52 67.65 94.23 67.42 92.75C67.18 91.18 68.25 89.54 69.79 89C71.18 88.51 72.61 88.39 74.05 88.49C74.86 88.54 75.02 88.13 74.95 87.48C74.73 85.38 72.11 84.23 70.32 85.46C70.07 85.63 69.82 85.85 69.82 86.16C69.82 87.02 69.08 86.81 68.7 86.85C68.25 86.9 68.43 86.35 68.41 86.06C68.33 84.77 68.56 84.51 69.82 84.1C71.43 83.58 73.04 83.65 74.61 84.18C75.65 84.54 76.17 85.43 76.39 86.5C76.68 87.9 76.57 89.3 76.59 90.71C76.59 91.53 76.6 92.35 76.59 93.18C76.59 93.71 76.71 94.1 77.37 94.01C77.9 93.93 78.04 94.19 78.04 94.69C78.04 95.25 77.75 95.35 77.3 95.32C77 95.3 76.71 95.32 76.41 95.32C75.51 95.29 74.86 94.98 74.86 93.84ZM73.32 89.68C72.44 89.58 71.47 89.8 70.55 90.11C69.43 90.48 68.78 91.67 69.05 92.67C69.3 93.62 70.92 94.6 71.86 94.37C73.4 93.99 74.37 93.03 74.77 91.5C75.24 89.69 75.23 89.68 73.32 89.68Z" fill="#199046" fill-opacity="1.000000" fill-rule="nonzero"/>
	<path id="Vector" d="M47.65 89.74C46.43 89.74 45.21 89.75 43.99 89.74C43.47 89.74 43.31 89.93 43.34 90.45C43.53 93.31 47.1 95.1 49.15 93.83C49.56 93.57 50.08 93.5 50.49 93.25C50.92 92.97 51.17 92.86 51.48 93.41C51.78 93.95 51.64 94.19 51.19 94.51C49.11 96.03 46.83 96.04 44.68 94.99C43.1 94.2 41.96 92.76 41.7 90.89C41.28 87.84 41.86 85.37 45.22 84.19C48.9 82.9 52.07 84.73 51.97 89.15C51.96 89.65 51.76 89.76 51.32 89.75C50.09 89.73 48.88 89.75 47.65 89.75L47.65 89.74ZM46.82 88.49C47.81 88.49 48.8 88.47 49.79 88.49C50.36 88.5 50.45 88.25 50.34 87.77C50.04 86.47 48.83 84.86 46.73 85.09C45.3 85.25 43.76 86.47 43.48 87.91C43.39 88.37 43.53 88.49 43.96 88.48C44.91 88.46 45.86 88.48 46.82 88.48L46.82 88.49Z" fill="#199046" fill-opacity="1.000000" fill-rule="nonzero"/>
	<path id="Vector" d="M130.65 95.6C127.54 95.88 124.78 92.61 124.73 89.75C124.68 86.39 127.46 83.73 130.67 83.76C134.54 83.79 136.98 86.43 136.7 90.25C136.47 93.39 133.73 95.75 130.65 95.6ZM135.08 89.51C135.32 87.47 133.68 85.22 130.74 85.17C127.92 85.13 126.34 87.71 126.32 89.64C126.3 92.03 128.64 94.28 130.68 94.24C133.14 94.19 135.08 92.16 135.08 89.51Z" fill="#199046" fill-opacity="1.000000" fill-rule="nonzero"/>
	<path id="Vector" d="M37.73 85.44C35.99 85.44 34.41 85.44 32.82 85.44C32.33 85.44 32.06 85.6 32.13 86.12C32.21 86.82 31.81 86.93 31.22 86.92C30.55 86.92 30.49 86.54 30.49 86.02C30.47 84.17 30.54 84.04 32.47 84C34.71 83.95 36.95 83.98 39.19 84C39.91 84 40.14 84.67 39.63 85.38C38.92 86.37 38.14 87.32 37.38 88.27C35.86 90.13 34.32 91.97 32.68 93.96C34.63 93.96 36.43 93.96 38.21 93.96C38.67 93.96 38.9 93.75 38.83 93.29C38.72 92.54 39.23 92.66 39.69 92.62C40.34 92.57 40.24 92.98 40.25 93.38C40.29 95.2 40.15 95.34 38.32 95.35C35.98 95.35 33.63 95.32 31.3 95.37C30.53 95.39 30.47 95.02 30.58 94.48C30.71 93.88 31.12 93.44 31.49 92.98C33.54 90.5 35.6 88.01 37.73 85.44Z" fill="#199046" fill-opacity="1.000000" fill-rule="nonzero"/>
	<path id="Vector" d="M21.38 93.96C23.29 93.96 25 93.95 26.72 93.96C27.28 93.96 27.61 93.79 27.55 93.17C27.49 92.61 27.8 92.53 28.28 92.54C28.8 92.56 29.04 92.68 29.05 93.26C29.1 94.99 28.78 95.34 27.02 95.34C24.78 95.34 22.53 95.34 20.29 95.33C19.96 95.33 19.5 95.52 19.3 95.12C19.1 94.71 19.2 94.19 19.49 93.91C20.49 92.98 21.08 91.75 22.02 90.79C23.6 89.15 24.72 87.12 26.56 85.38C24.66 85.38 23.02 85.38 21.39 85.38C20.99 85.38 20.75 85.6 20.81 86C20.94 86.92 20.15 86.82 19.73 86.86C19.08 86.93 19.23 86.32 19.23 85.92C19.2 84.2 19.41 84 21.14 84C23.31 84 25.49 84 27.68 84C28.65 84 28.86 84.38 28.37 85.28C27.77 86.37 26.84 87.2 26.09 88.18C24.62 90.09 23.05 91.95 21.4 93.96L21.38 93.96Z" fill="#199046" fill-opacity="1.000000" fill-rule="nonzero"/>
	<path id="Vector" d="M87.91 82.48C87.97 84.08 87.97 84.08 89.83 83.97C90.39 83.94 90.9 83.83 90.81 84.7C90.77 85.16 90.64 85.38 90.17 85.31C89.5 85.19 88.89 85.59 88.23 85.5C87.83 85.45 87.91 85.73 87.91 85.93C87.91 87.84 87.88 89.75 87.97 91.65C88.04 93.11 88.86 93.88 90.34 94.01C90.93 94.06 90.83 94.38 90.84 94.73C90.85 95.12 90.84 95.4 90.3 95.44C88.41 95.59 86.66 94.26 86.44 92.36C86.28 90.95 85.95 89.54 86.32 88.11C86.51 87.36 86.12 86.63 86.1 85.89C86.09 85.41 85.71 85.53 85.44 85.53C84.83 85.53 84.65 85.24 84.65 84.66C84.65 84.02 85.04 83.96 85.5 84.01C86.24 84.09 86.42 83.72 86.36 83.08C86.32 82.69 86.39 82.28 86.32 81.91C86.18 81.16 86.43 80.91 87.2 80.94C87.77 80.97 87.98 81.13 87.91 81.69C87.88 81.95 87.91 82.21 87.91 82.48L87.91 82.48Z" fill="#199046" fill-opacity="1.000000" fill-rule="nonzero"/>
	<path id="Vector" d="M112.43 89.18C112.43 88.16 112.4 87.14 112.45 86.12C112.48 85.53 112.35 85.26 111.71 85.31C111.36 85.34 110.89 85.51 110.86 84.83C110.84 84.27 111.01 84.11 111.58 84.1C112.19 84.1 112.56 83.76 112.46 83.05C112.4 82.66 112.48 82.26 112.47 81.86C112.45 81.33 112.42 80.93 113.21 80.94C113.95 80.94 114.09 81.21 114.05 81.86C114.02 82.57 113.84 83.5 114.21 83.95C114.61 84.44 115.57 84.11 116.28 84.11C116.78 84.11 116.88 84.32 116.91 84.75C116.94 85.27 116.68 85.38 116.26 85.37C116.22 85.37 116.18 85.37 116.16 85.37C115.42 85.45 114.39 84.97 114.03 85.53C113.78 85.92 114.02 86.9 114.03 87.61C114.05 88.89 114.09 90.18 114.03 91.46C113.96 92.83 115.16 94.16 116.5 94.03C117.08 93.97 117.05 94.32 117.04 94.7C117.04 95.07 117.07 95.38 116.52 95.43C114.35 95.62 112.23 93.89 112.44 91.85C112.54 90.97 112.46 90.08 112.46 89.19C112.45 89.19 112.43 89.19 112.42 89.19L112.43 89.18Z" fill="#199046" fill-opacity="1.000000" fill-rule="nonzero"/>
	<path id="Vector" d="M119.21 89.24C119.21 88.22 119.18 87.19 119.22 86.18C119.24 85.57 119.12 85.23 118.41 85.31C117.97 85.38 117.59 85.38 117.58 84.7C117.58 83.99 118.01 84.1 118.42 84.12C118.97 84.15 119.22 83.88 119.22 83.36C119.22 82.79 119.25 82.23 119.22 81.68C119.17 81.12 119.38 80.95 119.94 80.94C120.54 80.93 120.67 81.16 120.64 81.69C120.62 81.98 120.72 82.27 120.74 82.56C120.81 84.12 120.8 84.12 122.33 84.12C122.56 84.12 122.79 84.14 123.02 84.12C123.43 84.08 123.62 84.21 123.61 84.66C123.6 85.09 123.55 85.31 123.03 85.34C122.3 85.38 121.31 84.93 120.91 85.58C120.56 86.13 120.8 87.05 120.8 87.81C120.8 89.03 120.85 90.25 120.8 91.46C120.76 92.72 121.72 93.99 123.21 94.01C123.8 94.02 123.81 94.29 123.83 94.73C123.84 95.23 123.68 95.41 123.16 95.43C120.85 95.51 119.28 94.05 119.24 91.71C119.23 90.88 119.24 90.06 119.24 89.24L119.23 89.24L119.21 89.24Z" fill="#199046" fill-opacity="1.000000" fill-rule="nonzero"/>
	<path id="Vector" d="M93.42 90.49C93.42 89.11 93.41 87.72 93.42 86.34C93.43 85.81 93.36 85.43 92.69 85.53C92.07 85.61 91.81 85.35 91.8 84.69C91.79 83.94 92.28 84.15 92.66 84.14C93.1 84.12 93.52 84.14 93.95 84.14C94.44 84.14 94.77 84.35 94.82 84.87C94.92 85.77 95.37 85.67 95.85 85.18C96.56 84.45 97.35 83.92 98.42 83.92C98.76 83.92 99.05 84 98.97 84.4C98.91 84.73 99.28 85.22 98.63 85.35C96.13 85.84 95.1 88 95.03 90.32C94.98 91.74 94.98 93.15 95.02 94.56C95.04 95.29 94.72 95.43 94.07 95.45C93.29 95.48 93.42 95 93.42 94.55C93.42 93.19 93.42 91.85 93.42 90.5L93.42 90.49Z" fill="#199046" fill-opacity="1.000000" fill-rule="nonzero"/>
	<path id="Vector" d="M141.08 86.47C141.77 85.09 142.71 84.14 144.22 83.94C144.57 83.9 145.15 83.64 145.21 84.37C145.26 84.88 145.31 85.27 144.51 85.43C142.39 85.84 141.46 87.4 141.2 89.4C141 91.03 141.01 92.69 141.17 94.33C141.28 95.45 140.45 95.32 139.94 95.37C139.28 95.44 139.5 94.77 139.5 94.41C139.48 91.78 139.5 89.14 139.53 86.52C139.53 85.9 139.48 85.41 138.63 85.53C137.89 85.62 138.14 85.01 138.09 84.64C138.04 84.22 138.13 83.92 138.66 83.98C138.99 84.01 139.33 83.98 139.65 84.01C140.69 84.08 141.05 84.46 141.06 85.49C141.06 85.82 141.06 86.14 141.06 86.47L141.08 86.47Z" fill="#199046" fill-opacity="1.000000" fill-rule="nonzero"/>
	<path id="Vector" d="M56.26 86.66C56.6 86.13 56.78 85.8 57.01 85.48C57.71 84.52 58.61 83.93 59.84 83.91C60.25 83.91 60.56 83.97 60.53 84.5C60.49 84.95 60.63 85.42 59.94 85.54C57.77 85.92 56.88 86.83 56.51 89.06C56.22 90.82 56.42 92.61 56.37 94.39C56.36 94.72 56.49 95.08 56.02 95.29C55.24 95.65 54.8 95.45 54.8 94.61C54.79 91.91 54.77 89.21 54.8 86.51C54.8 85.85 54.75 85.39 53.92 85.53C53.27 85.62 53.38 85.15 53.35 84.76C53.32 84.3 53.48 84.15 53.96 84.12C56.1 84 56.14 84.01 56.27 86.67L56.26 86.66Z" fill="#199046" fill-opacity="1.000000" fill-rule="nonzero"/>
	<path id="Vector" d="M149.68 89.24C149.68 90.43 149.76 91.61 149.65 92.79C149.59 93.51 149.85 93.89 150.46 93.94C151.18 94 151.12 94.44 151.09 94.9C151.05 95.54 150.58 95.35 150.21 95.35C148.27 95.34 148.08 95.17 148.07 93.29C148.05 90.99 148.05 88.69 148.07 86.39C148.07 85.81 147.99 85.4 147.27 85.52C146.61 85.62 146.64 85.19 146.62 84.73C146.6 84.18 146.77 83.94 147.34 83.99C147.71 84.02 148.07 83.99 148.44 84.01C149.22 84.07 149.64 84.48 149.64 85.29C149.64 86.61 149.64 87.92 149.64 89.24C149.66 89.24 149.68 89.24 149.7 89.24L149.68 89.24Z" fill="#199046" fill-opacity="1.000000" fill-rule="nonzero"/>
	<path id="Vector" d="M64.87 89.24C64.87 90.56 64.87 91.88 64.87 93.19C64.87 93.74 65.01 94.11 65.66 94.02C66.14 93.95 66.27 94.17 66.26 94.64C66.25 95.09 66.18 95.36 65.63 95.43C63.85 95.63 63.3 95.15 63.3 93.33C63.3 91 63.29 88.66 63.3 86.32C63.3 85.77 63.22 85.45 62.55 85.53C61.92 85.62 61.67 85.31 61.66 84.67C61.66 83.93 62.18 84.13 62.55 84.13C64.6 84.11 64.9 83.75 64.89 86.47C64.89 87.4 64.89 88.32 64.89 89.24L64.87 89.24Z" fill="#199046" fill-opacity="1.000000" fill-rule="nonzero"/>
	<path id="Vector" d="M14.69 90.01C14.69 88.77 14.68 87.51 14.69 86.26C14.69 85.76 14.62 85.41 13.98 85.53C13.31 85.65 13.27 85.26 13.22 84.73C13.18 84.1 13.52 84.14 13.95 84.12C16.1 84.01 16.26 84.16 16.26 86.3C16.26 88.54 16.27 90.78 16.26 93.02C16.26 93.65 16.33 94.16 17.16 94.04C17.48 93.99 17.69 94.12 17.65 94.47C17.61 94.76 17.81 95.1 17.32 95.27C16 95.72 14.59 95.44 14.69 93.68C14.76 92.47 14.7 91.24 14.7 90.02L14.69 90.01Z" fill="#199046" fill-opacity="1.000000" fill-rule="nonzero"/>
	<path id="Vector" d="M109.91 2.34C108.1 2.81 106.08 2.62 104.37 4.02L106.17 4.02C106.18 4.06 106.2 4.12 106.21 4.16C106 4.26 105.79 4.36 105.45 4.51C106.7 5.06 107.62 5.92 108.5 6.82C108.45 6.89 108.4 6.96 108.35 7.03C107.95 6.75 107.52 6.49 107.14 6.19C106.13 5.42 105.07 5.04 103.87 5.74C103.6 5.89 103.36 5.79 103.14 5.61C101.57 4.26 99.79 3.34 97.81 2.74C97.69 2.71 97.58 2.62 97.49 2.53C97.45 2.5 97.46 2.42 97.41 2.22C98.42 2.24 99.31 2.64 100.21 2.89C101.33 3.18 101.33 3.24 101.15 2.1C101.05 1.42 100.89 0.74 100.74 0C101.26 0.14 101.27 0.51 101.37 0.85C101.56 1.44 101.76 2.01 101.96 2.59C102.41 3.88 102.71 3.95 103.87 3.27C105.73 2.19 107.75 1.9 109.9 2.34L109.91 2.34Z" fill="#199046" fill-opacity="1.000000" fill-rule="nonzero"/>
	<path id="Vector" d="M63.09 80.47C62.87 79.6 63.39 79.6 64.06 79.55C64.98 79.48 64.73 80.06 64.78 80.54C64.85 81.22 64.69 81.53 63.89 81.53C63.05 81.53 63 81.11 63.08 80.47L63.09 80.47Z" fill="#199046" fill-opacity="1.000000" fill-rule="nonzero"/>
	<path id="Vector" d="M16.16 80.61C16.26 81.21 16.19 81.6 15.44 81.55C14.83 81.5 14.36 81.49 14.44 80.64C14.5 80.03 14.39 79.54 15.32 79.54C16.26 79.54 16.24 80.02 16.16 80.61Z" fill="#199046" fill-opacity="1.000000" fill-rule="nonzero"/>
	<path id="Vector" d="M149.52 80.54C149.61 81.15 149.53 81.53 148.74 81.53C147.86 81.53 148.02 81.01 148 80.49C147.96 79.9 148 79.53 148.8 79.53C149.68 79.53 149.55 80.03 149.52 80.54Z" fill="#199046" fill-opacity="1.000000" fill-rule="nonzero"/>
	<path id="Vector" d="M98.94 55.67C95.86 55.67 92.79 55.65 89.71 55.68C89.02 55.68 88.81 55.47 88.81 54.79C88.84 50.31 88.84 45.83 88.81 41.35C88.81 40.69 88.98 40.45 89.69 40.46C95.93 40.48 102.18 40.48 108.43 40.46C109.01 40.46 109.24 40.58 109.24 41.21C109.2 45.79 109.18 50.37 109.2 54.94C109.2 55.62 108.9 55.68 108.36 55.67C105.22 55.66 102.08 55.67 98.94 55.67L98.94 55.67Z" fill="#FFFFFF" fill-opacity="1.000000" fill-rule="nonzero"/>
</svg>
