<svg width="233.386475" height="80.000000" viewBox="0 0 233.386 80" fill="none" xmlns="http://www.w3.org/2000/svg" xmlns:xlink="http://www.w3.org/1999/xlink">
	<desc>
			Created with Pixso.
	</desc>
	<defs/>
	<path id="Vector" d="M167.06 74.31C166.47 74.57 165.83 74.48 165.21 74.48C150.64 74.48 136.07 74.48 121.5 74.48C120.41 74.48 119.32 74.57 118.25 74.68C117.23 74.79 116.7 74.53 116.78 73.36C116.86 71.91 116.84 70.45 116.78 69C116.74 68.2 117.05 67.63 117.58 67.08C124 60.62 130.48 54.21 136.79 47.65C140.88 43.4 145.21 39.34 148.5 34.39C151.04 30.58 152.94 26.55 152.75 21.77C152.59 17.28 148.94 13.45 144.44 13.01C137.5 12.34 133.4 16.93 132.48 22.33C132.37 22.97 132.17 23.62 132.15 24.28C132.13 24.97 131.87 25.18 131.21 25.18C127.41 25.17 123.61 25.17 119.82 25.18C119.03 25.18 118.63 24.86 118.71 24.07C119.61 14.91 123.19 7.36 131.64 2.75C134.41 1.25 137.39 0.44 140.55 0.17C140.78 0.15 141.01 0.14 141.24 0.13C145.59 -0.23 149.83 0.31 153.83 2.03C159.94 4.66 163.64 9.46 165.58 15.67C167.39 21.45 166.36 27.04 164.18 32.51C162.39 37.01 159.68 40.91 156.7 44.7C154.19 47.9 151.5 50.94 148.66 53.81C146.28 56.22 144.06 58.76 141.78 61.23C141.42 61.51 141.34 61.72 141.89 61.81C149.62 61.81 157.34 61.83 165.06 61.85C165.73 61.85 166.4 61.92 167.07 61.97C167.07 66.07 167.08 70.19 167.09 74.3L167.06 74.31Z" fill="#E52D2D" fill-opacity="1.000000" fill-rule="nonzero"/>
	<path id="Vector" d="M219.88 9.27C219.68 9.73 219.47 10.18 219.3 10.65C218.77 12.1 218.07 13.08 216.26 13.47C213.28 14.11 212.09 16.68 211.53 19.41C211.36 20.26 211.07 20.4 210.35 20.59C208.23 21.13 207.99 21.47 208.05 23.71C208.08 24.67 207.78 25.54 207.47 26.42C206.88 28.13 206.86 29.87 207.43 31.56C207.85 32.8 207.67 33.85 207.08 34.93C205.55 37.77 203.98 40.59 202.72 43.56C201.1 47.39 199.4 51.18 197.53 54.9C193.45 63.01 189.53 71.2 185.58 79.37C185.22 80.11 184.81 80.1 184.23 79.82C181.08 78.33 177.94 76.83 174.79 75.34C173.68 74.81 173.61 74.28 174.2 73.1C176.67 68.2 178.77 63.11 181.35 58.27C183.97 53.38 186.3 48.36 188.76 43.41C192.58 35.75 196.31 28.03 200.06 20.33C200.84 18.72 201.62 17.12 202.42 15.51C202.64 15.22 203.01 14.89 202.27 14.77C197.12 14.75 191.98 14.71 186.83 14.7C182.46 14.69 178.09 14.69 173.72 14.7C172.81 14.7 172.26 14.58 172.28 13.46C172.35 9.67 172.34 5.89 172.36 2.1C179.12 2.09 185.89 2.07 192.63 2.07C201.22 2.07 209.79 2.08 218.38 2.04C219.49 2.04 219.99 2.3 219.93 3.51C219.84 5.42 219.88 7.34 219.86 9.26L219.88 9.27Z" fill="#E52D2D" fill-opacity="1.000000" fill-rule="nonzero"/>
	<path id="Vector" d="M220.84 38.2C223.35 38.62 225.87 39.03 228.09 40.4C231.26 42.35 232.48 45.33 232.35 48.87C232.23 52.31 230.35 54.62 227.18 55.91C227.04 55.97 226.92 56.05 226.78 56.14C227.24 56.87 228.08 56.64 228.69 56.94C232.73 58.89 233.94 62.82 233.16 66.71C232.15 71.74 228.72 74.54 223.26 75.29C219.08 75.87 214.89 76.05 210.79 74.96C205.54 73.56 202.07 70.41 202.14 64.66C202.19 60.36 204.52 57.36 209.12 56.21C206.42 55.08 204.42 53.61 203.57 50.87C202.32 46.9 204.19 42.12 207.84 40.2C210.23 38.93 212.77 38.18 215.49 38.16C216.96 38.14 218.43 38.13 219.89 38.12C220.1 38.13 220.29 38.16 220.49 38.17C220.61 38.17 220.71 38.18 220.83 38.19L220.84 38.2ZM217.96 60.05C215.6 60.07 213.61 59.82 211.81 60.93C210.56 61.7 209.84 62.69 209.84 64.2C209.84 65.71 210.49 66.88 211.77 67.5C215.62 69.42 219.58 69.13 223.45 67.56C225.26 66.83 226.03 65.38 225.84 63.75C225.65 62.12 224.24 60.77 222.46 60.36C220.83 59.97 219.2 60.09 217.98 60.07L217.96 60.05ZM217.18 53.17C219.47 53.22 221.26 53.24 222.99 52.32C224.23 51.65 224.77 50.74 224.9 49.47C225.03 48.06 224.56 47.01 223.2 46.31C220.17 44.75 216.99 44.86 213.82 45.51C211.97 45.89 210.53 47.74 210.53 49.17C210.53 50.85 211.72 52.12 213.83 52.89C215.09 53.35 216.37 53.09 217.17 53.17L217.18 53.17Z" fill="#FEFEFE" fill-opacity="1.000000" fill-rule="nonzero"/>
	<path id="Vector" d="M30.3 20.15C30.4 16.15 27.83 14.4 24.63 15.55C22.91 16.16 22.14 17.73 21.57 19.34C21.38 19.89 21.38 20.51 21.3 21.1C21.3 21.63 21.32 22.16 21.32 22.69C21.29 26.42 21.25 30.15 21.22 33.88C21.11 33.96 21.01 34.05 20.91 34.14C19.14 34.14 17.38 34.14 15.61 34.14C15.53 34.06 15.44 33.98 15.35 33.89C15.34 30.38 15.26 26.86 15.34 23.34C15.38 21.73 15.01 20.19 14.94 18.61C14.87 16.81 13.41 15.58 11.48 15.24C10.11 15.01 7.95 16.08 7.17 17.4C6.33 18.83 5.96 20.4 5.99 22.05C6 22.17 6.01 22.28 6.02 22.4C5.99 26.23 5.95 30.06 5.92 33.89C5.82 33.98 5.71 34.06 5.62 34.15C3.86 34.15 2.09 34.15 0.33 34.15C0.24 34.07 0.15 33.99 0.07 33.91C0.07 26.14 0.04 18.37 0.03 10.59C2 10.59 3.96 10.59 5.93 10.59L5.93 13.15C8.25 11.04 10.59 9.71 13.64 9.91C16.63 10.11 18.89 11.36 20.43 14.05C21.87 12.16 23.55 10.73 25.82 10.2C28.85 9.5 31.72 9.84 34.16 11.95C35.51 13.12 36.06 14.68 36.25 16.41C36.7 20.42 36.54 24.45 36.55 28.46C36.55 30.27 36.51 32.09 36.5 33.89C36.41 33.98 36.33 34.06 36.23 34.14C34.47 34.14 32.7 34.14 30.94 34.14C30.84 34.06 30.74 33.98 30.64 33.88C30.61 29.63 30.56 25.38 30.52 21.13C30.62 20.78 30.72 20.41 30.32 20.15L30.3 20.15Z" fill="#FEFEFE" fill-opacity="1.000000" fill-rule="nonzero"/>
	<path id="Vector" d="M88.14 74.67C88.12 74.06 88.08 73.44 88.05 72.64C86.31 73.89 84.64 74.94 82.58 75.41C78.28 76.4 74.02 74.03 71.85 70.93C68.43 66.04 68.36 60.85 71.41 55.77C74.95 49.9 82.02 49.11 87.13 52.95C87.36 53.12 87.59 53.31 88.11 53.71L88.11 51.35C90.07 51.35 92.04 51.34 94.02 51.33C94.02 59.11 94.02 66.89 94.01 74.67C93.91 74.75 93.8 74.83 93.71 74.92C91.95 74.92 90.18 74.91 88.42 74.89C88.33 74.81 88.25 74.74 88.17 74.66L88.14 74.67ZM81.79 56.3C77.95 55.57 75.08 60.02 75.22 63.36C75.4 67.3 78.15 69.99 82.34 70.01C85.4 70.01 88.43 67.5 88.37 63.04C88.31 58.87 85.62 55.85 81.79 56.3Z" fill="#FEFEFE" fill-opacity="1.000000" fill-rule="nonzero"/>
	<path id="Vector" d="M68.06 74.91C66.3 74.91 64.53 74.91 62.77 74.92C62.67 74.83 62.59 74.75 62.5 74.66C62.47 71.51 62.38 68.35 62.47 65.21C62.53 63.25 62.2 61.34 62.12 59.39C62.05 57.48 60.47 56.24 58.49 56.29C55.14 56.37 53.07 58.66 53.14 62.19C53.15 62.42 53.18 62.63 53.19 62.85C53.14 66.8 53.09 70.73 53.06 74.67C52.96 74.75 52.87 74.83 52.76 74.92C51 74.92 49.23 74.91 47.47 74.89C47.39 74.81 47.31 74.74 47.23 74.66C47.23 74.56 47.23 74.46 47.22 74.36C47.26 74.34 47.34 74.29 47.34 74.28C47.31 74.2 47.28 74.13 47.24 74.04C47.24 63.67 47.24 53.29 47.24 42.91C47.28 42.88 47.36 42.84 47.35 42.82C47.31 42.74 47.27 42.67 47.22 42.58C47.15 42.48 47.16 42.38 47.24 42.3C49.17 42.3 51.12 42.3 53.05 42.3L53.05 53.44C54.06 52.83 54.92 52.31 55.78 51.8C59.06 49.83 63.64 50.63 65.75 52.56C67.24 53.93 68 55.56 68.08 57.54C68.04 57.88 67.98 58.24 68.3 58.5C68.3 63.68 68.31 68.87 68.32 74.06C68.04 74.28 68.08 74.61 68.06 74.92L68.06 74.91Z" fill="#FEFEFE" fill-opacity="1.000000" fill-rule="nonzero"/>
	<path id="Vector" d="M37.72 10.51C37.95 10.48 38.16 10.46 38.39 10.43C39.96 10.57 41.54 10.58 43.11 10.43C43.21 10.46 43.3 10.5 43.41 10.53C43.41 12.95 43.36 15.37 43.41 17.79C43.43 19.11 43.13 20.45 43.63 21.75C43.69 23.08 43.52 24.47 43.86 25.74C44.51 28.17 45.85 29.43 48.49 29.23C50.71 29.07 52.09 27.68 52.45 25.16C52.51 24.76 52.52 24.33 52.56 23.93C52.89 23.59 52.81 23.16 52.81 22.76C52.81 18.69 52.81 14.63 52.8 10.56C52.89 10.52 52.99 10.47 53.08 10.44C54.76 10.59 56.43 10.59 58.11 10.44C58.22 10.46 58.34 10.5 58.45 10.52C58.46 14.89 58.48 19.27 58.49 23.64C58.32 25.05 58.24 26.48 57.94 27.86C57.19 31.11 53.89 34.24 50.19 34.59C47.8 34.81 45.56 34.93 43.35 33.93C39.77 32.31 38.18 29.38 37.82 25.64C37.75 24.97 37.72 24.31 37.69 23.64C37.7 19.27 37.72 14.89 37.73 10.52L37.72 10.51Z" fill="#FEFEFE" fill-opacity="1.000000" fill-rule="nonzero"/>
	<path id="Vector" d="M94.93 34.51C90.62 34.25 87.71 31.83 85.62 28.3C81.15 20.72 86.56 11.26 94.59 10.14C99.55 9.46 103.99 10.2 107.64 13.93C108.64 14.97 108.42 15.53 107.2 16.01C106.82 16.16 106.47 16.38 106.12 16.58C104.75 17.38 103.76 17.87 101.94 16.66C97.96 14.01 91.07 15.01 89.99 21.91C89.51 25.03 92.47 29.29 96.39 29.24C98.98 29.21 101.39 28.99 103.28 26.99C103.62 26.62 103.83 26.74 104.19 26.99C105.23 27.73 106.29 28.46 107.37 29.14C108.12 29.6 108.31 30.02 107.64 30.69C105.52 32.83 103.02 34.21 99.99 34.51C99.44 34.45 98.87 34.32 98.39 34.72C97.76 34.72 97.14 34.72 96.52 34.72C96.03 34.32 95.49 34.45 94.94 34.51L94.93 34.51Z" fill="#FEFEFE" fill-opacity="1.000000" fill-rule="nonzero"/>
	<path id="Vector" d="M62.63 26.73C64.18 28.49 65.98 29.49 68.38 29.24C69.22 29.16 69.75 28.83 70.12 28.16C70.54 27.39 70.12 26.76 69.6 26.21C68.53 25.1 67.05 24.67 65.75 23.95C64.37 23.17 62.97 22.43 61.86 21.25C58.33 17.56 59.48 12.3 64.25 10.45C67.63 9.14 72.25 10.09 74.75 12.89C75.33 13.54 75.41 13.96 74.7 14.49C74.42 14.7 74.19 14.99 73.92 15.25C73.25 15.89 72.65 16.81 71.85 17.08C71 17.37 70.46 16.16 69.67 15.83C68.74 15.44 67.79 14.98 66.72 15.32C65.32 15.77 65.1 16.87 66.19 17.86C66.46 18.11 66.77 18.25 67.09 18.42C68.83 19.31 70.58 20.2 72.28 21.19C74.77 22.66 76.35 25.72 75.86 28.03C75.06 31.91 72.92 33.89 69.41 34.56C65.56 35.29 62.38 34.35 59.65 31.57C59.06 30.95 58.99 30.59 59.64 29.97C60.68 28.97 61.61 27.86 62.64 26.74L62.63 26.73Z" fill="#FEFEFE" fill-opacity="1.000000" fill-rule="nonzero"/>
	<path id="Vector" d="M108.62 42.93C108.62 53.3 108.62 63.68 108.62 74.06C108.35 74.28 108.38 74.61 108.36 74.92C106.59 74.92 104.83 74.93 103.07 74.94L102.76 74.68L102.67 74.72C102.67 74.6 102.67 74.48 102.66 74.36C102.66 69.7 102.66 65.05 102.66 60.38C102.7 60.28 102.75 60.17 102.78 60.07C103.27 59.64 104.13 59.89 104.4 59.12C104.84 58.63 104.64 58.04 104.64 57.48C104.65 52.36 104.64 47.23 104.64 42.12C104.84 42.11 105.04 42.1 105.24 42.09C106.33 42.57 107.48 42.19 108.6 42.32C108.68 42.42 108.68 42.51 108.62 42.62C108.58 42.65 108.5 42.69 108.51 42.71C108.54 42.8 108.57 42.87 108.61 42.95L108.62 42.93Z" fill="#FEFEFE" fill-opacity="1.000000" fill-rule="nonzero"/>
	<path id="Vector" d="M95.57 42.32C96.9 42.32 98.59 41.74 99.42 42.56C100.05 43.17 99.61 44.9 99.62 46.12C99.62 50.2 99.64 54.27 99.62 58.34C99.62 59.46 99.96 60.14 101.22 60.03C101.22 64.92 101.22 69.79 101.22 74.68C101.1 74.76 100.99 74.85 100.87 74.93C99.11 74.92 97.36 74.89 95.59 74.88C95.59 64.03 95.57 53.18 95.57 42.32Z" fill="#FEFEFE" fill-opacity="1.000000" fill-rule="nonzero"/>
	<path id="Vector" d="M77.18 33.88C77.18 26.11 77.16 18.33 77.16 10.57C79.12 10.57 81.1 10.57 83.06 10.57C83.06 18.35 83.05 26.13 83.04 33.89C82.95 33.98 82.85 34.06 82.74 34.15C80.98 34.15 79.22 34.15 77.45 34.15C77.36 34.07 77.27 33.98 77.18 33.89L77.18 33.88Z" fill="#FEFEFE" fill-opacity="1.000000" fill-rule="nonzero"/>
	<path id="Vector" d="M222.69 24.43C224.86 28.88 224.21 33.87 220.06 35.11C221.33 33.24 220.89 31.31 220.51 29.27C220.03 29.66 220.21 30.42 219.27 30.46C219.97 27.83 215.85 27.05 217.08 23.99C214.53 25.12 215.18 27.52 214.64 29.54C214.13 29.12 213.76 28.83 213.25 28.43C212.83 30.73 211.4 32.86 213.69 35.16C211.24 34.45 209.82 32.17 209.56 29.84C209.3 27.57 210.68 25.72 210.86 23.59C210.91 23.03 211.43 23.25 211.69 23.49C212.1 23.87 212.45 24.33 212.87 24.82C213.83 23.66 214.09 22.37 213.97 20.96C213.81 19.02 214.47 17.43 216 16.21C216.27 16 216.6 15.63 216.95 15.9C217.11 16.03 217.09 16.47 217.07 16.75C216.88 18.55 217.53 19.95 218.87 21.16C220.11 22.28 220.7 23.81 221.16 25.39C221.26 25.72 220.84 26.35 221.54 26.36C222.1 26.36 222.2 25.78 222.37 25.36C222.48 25.09 222.29 24.73 222.7 24.41L222.69 24.43Z" fill="#FEFEFE" fill-opacity="1.000000" fill-rule="nonzero"/>
	<path id="Vector" d="M80.19 0.87C82.47 0.89 83.89 2.33 83.85 4.55C83.79 6.91 82.25 8.39 79.87 8.36C78.06 8.34 76.23 6.42 76.2 4.51C76.16 2.41 77.87 0.85 80.19 0.87Z" fill="#FEFEFE" fill-opacity="1.000000" fill-rule="nonzero"/>
	<path id="Vector" d="M219.88 9.27C219.9 7.36 219.86 5.43 219.95 3.52C220.01 2.32 219.52 2.06 218.4 2.06C209.82 2.09 201.24 2.07 192.66 2.08C185.9 2.08 179.14 2.1 172.39 2.11C172.54 1.37 173.14 1.76 173.5 1.76C188.59 1.74 203.67 1.75 218.77 1.71C219.91 1.71 220.36 2.03 220.3 3.2C220.21 4.81 220.3 6.41 220.27 8.03C220.27 8.47 220.46 8.99 219.91 9.27L219.88 9.27Z" fill="#8E2221" fill-opacity="1.000000" fill-rule="nonzero"/>
	<path id="Vector" d="M95.57 42.32C95.57 53.17 95.59 64.02 95.59 74.88C95.27 74.76 95.31 74.5 95.31 74.24C95.31 63.71 95.31 53.17 95.31 42.64C95.31 42.54 95.31 42.43 95.36 42.35C95.37 42.32 95.5 42.35 95.57 42.35L95.57 42.32Z" fill="#D9D9D9" fill-opacity="1.000000" fill-rule="nonzero"/>
	<path id="Vector" d="M104.65 42.11C104.65 47.23 104.65 52.36 104.65 57.47C104.65 58.01 104.85 58.61 104.41 59.11C104.39 53.64 104.38 48.18 104.36 42.72C104.36 42.46 104.34 42.2 104.66 42.11L104.65 42.11Z" fill="#D9D9D9" fill-opacity="1.000000" fill-rule="nonzero"/>
	<path id="Vector" d="M101.22 74.68C101.22 69.79 101.22 64.92 101.22 60.03C101.63 60.14 101.57 60.48 101.57 60.77C101.57 65.2 101.57 69.64 101.57 74.07C101.57 74.41 101.66 74.81 101.19 74.96C101.21 74.87 101.22 74.76 101.23 74.67L101.22 74.68Z" fill="#525252" fill-opacity="1.000000" fill-rule="nonzero"/>
	<path id="Vector" d="M52.77 10.54C52.77 14.62 52.79 18.68 52.79 22.75C52.79 23.15 52.88 23.59 52.54 23.92C52.51 19.61 52.5 15.3 52.48 10.98C52.48 10.76 52.51 10.58 52.77 10.54Z" fill="#D9D9D9" fill-opacity="1.000000" fill-rule="nonzero"/>
	<path id="Vector" d="M58.48 23.62C58.47 19.26 58.45 14.88 58.43 10.51C58.81 10.66 58.75 10.99 58.75 11.3C58.75 15.12 58.74 18.94 58.72 22.76C58.72 23.07 58.72 23.39 58.47 23.62L58.48 23.62Z" fill="#525252" fill-opacity="1.000000" fill-rule="nonzero"/>
	<path id="Vector" d="M37.72 10.51C37.71 14.88 37.69 19.26 37.68 23.62C37.26 23.13 37.43 22.54 37.41 21.98C37.39 18.63 37.39 15.27 37.41 11.91C37.41 11.44 37.15 10.87 37.72 10.5L37.72 10.51Z" fill="#525252" fill-opacity="1.000000" fill-rule="nonzero"/>
	<path id="Vector" d="M167.06 74.31C167.06 70.21 167.05 66.09 167.03 61.98C167.39 62.13 167.38 62.45 167.38 62.76C167.38 66.35 167.38 69.94 167.38 73.52C167.38 73.83 167.38 74.15 167.05 74.31L167.06 74.31Z" fill="#8E2221" fill-opacity="1.000000" fill-rule="nonzero"/>
	<path id="Vector" d="M43.62 21.75C43.12 20.46 43.43 19.11 43.39 17.79C43.34 15.37 43.39 12.95 43.39 10.53C43.65 10.57 43.7 10.73 43.7 10.96C43.68 14.55 43.65 18.15 43.63 21.73L43.62 21.75Z" fill="#D9D9D9" fill-opacity="1.000000" fill-rule="nonzero"/>
	<path id="Vector" d="M93.99 51.34C92.03 51.34 90.06 51.35 88.08 51.37C90.05 50.75 92.02 50.79 93.99 51.34Z" fill="#525252" fill-opacity="1.000000" fill-rule="nonzero"/>
	<path id="Vector" d="M83.06 10.54C81.1 10.54 79.12 10.54 77.16 10.54C79.12 9.96 81.09 9.98 83.06 10.54Z" fill="#525252" fill-opacity="1.000000" fill-rule="nonzero"/>
	<path id="Vector" d="M5.89 10.56C3.93 10.56 1.96 10.56 0 10.56C1.96 9.97 3.93 9.98 5.89 10.56Z" fill="#525252" fill-opacity="1.000000" fill-rule="nonzero"/>
	<path id="Vector" d="M53.05 42.3C51.12 42.3 49.17 42.3 47.24 42.3C49.17 41.78 51.12 41.79 53.05 42.3Z" fill="#D9D9D9" fill-opacity="1.000000" fill-rule="nonzero"/>
	<path id="Vector" d="M58.1 10.43C56.42 10.58 54.75 10.58 53.07 10.43C54.75 10.07 56.42 10.07 58.1 10.43Z" fill="#525252" fill-opacity="1.000000" fill-rule="nonzero"/>
	<path id="Vector" d="M43.11 10.43C41.54 10.58 39.96 10.58 38.39 10.43C39.96 10.06 41.54 10.06 43.11 10.43Z" fill="#525252" fill-opacity="1.000000" fill-rule="nonzero"/>
	<path id="Vector" d="M219.92 38.12C218.45 38.13 216.98 38.14 215.51 38.16C216.98 37.7 218.45 37.74 219.92 38.12Z" fill="#525252" fill-opacity="1.000000" fill-rule="nonzero"/>
	<path id="Vector" d="M108.61 42.31C107.49 42.18 106.34 42.56 105.26 42.08C106.38 42.08 107.53 41.69 108.61 42.31Z" fill="#D9D9D9" fill-opacity="1.000000" fill-rule="nonzero"/>
	<path id="Vector" d="M21.32 22.69C21.32 22.16 21.3 21.63 21.3 21.1C21.76 21.62 21.65 22.15 21.32 22.69Z" fill="#525252" fill-opacity="1.000000" fill-rule="nonzero"/>
	<path id="Vector" d="M98.38 34.73C98.86 34.33 99.42 34.46 99.97 34.52C99.46 34.8 98.93 34.83 98.38 34.73Z" fill="#D9D9D9" fill-opacity="1.000000" fill-rule="nonzero"/>
	<path id="Vector" d="M94.93 34.51C95.47 34.45 96.03 34.32 96.5 34.72C95.95 34.84 95.43 34.76 94.93 34.51Z" fill="#D9D9D9" fill-opacity="1.000000" fill-rule="nonzero"/>
	<path id="Vector" d="M108.36 74.92C108.38 74.61 108.33 74.29 108.62 74.06C108.67 74.37 108.9 74.76 108.36 74.92Z" fill="#D9D9D9" fill-opacity="1.000000" fill-rule="nonzero"/>
	<path id="Vector" d="M68.06 74.91C68.08 74.6 68.04 74.28 68.32 74.04C68.36 74.36 68.61 74.75 68.06 74.91Z" fill="#D9D9D9" fill-opacity="1.000000" fill-rule="nonzero"/>
	<path id="Vector" d="M202.29 14.77C203.02 14.89 202.65 15.22 202.43 15.51C202.38 15.27 202.33 15.02 202.29 14.77Z" fill="#8E2221" fill-opacity="1.000000" fill-rule="nonzero"/>
	<path id="Vector" d="M30.3 20.15C30.7 20.41 30.58 20.78 30.5 21.13C30.17 20.86 30.27 20.5 30.3 20.15Z" fill="#525252" fill-opacity="1.000000" fill-rule="nonzero"/>
	<path id="Vector" d="M68.3 58.5C67.98 58.24 68.05 57.88 68.08 57.54C68.45 57.8 68.37 58.14 68.3 58.5Z" fill="#D9D9D9" fill-opacity="1.000000" fill-rule="nonzero"/>
	<path id="Vector" d="M53.19 62.86C53.18 62.64 53.15 62.43 53.14 62.2C53.46 62.4 53.48 62.62 53.19 62.86Z" fill="#525252" fill-opacity="1.000000" fill-rule="nonzero"/>
	<path id="Vector" d="M141.22 0.15C140.98 0.17 140.76 0.18 140.52 0.19C140.75 -0.06 140.97 -0.07 141.22 0.15Z" fill="#8E2221" fill-opacity="1.000000" fill-rule="nonzero"/>
	<path id="Vector" d="M141.86 61.82C141.3 61.74 141.4 61.52 141.74 61.25C141.78 61.44 141.82 61.64 141.86 61.82Z" fill="#8E2221" fill-opacity="1.000000" fill-rule="nonzero"/>
	<path id="Vector" d="M220.84 38.2C220.72 38.2 220.62 38.19 220.5 38.18C220.63 38 220.74 38.05 220.84 38.2Z" fill="#525252" fill-opacity="1.000000" fill-rule="nonzero"/>
	<path id="Vector" d="M0.03 33.88C0.11 33.96 0.21 34.05 0.29 34.13C0.07 34.19 -0.02 34.09 0.03 33.88Z" fill="#D9D9D9" fill-opacity="1.000000" fill-rule="nonzero"/>
	<path id="Vector" d="M6.01 22.38C6 22.27 5.99 22.16 5.97 22.04C6.14 22.14 6.27 22.24 6.01 22.38Z" fill="#525252" fill-opacity="1.000000" fill-rule="nonzero"/>
	<path id="Vector" d="M5.6 34.13C5.69 34.05 5.8 33.96 5.89 33.87C5.94 34.12 5.82 34.19 5.6 34.13Z" fill="#D9D9D9" fill-opacity="1.000000" fill-rule="nonzero"/>
	<path id="Vector" d="M15.34 33.88C15.42 33.96 15.52 34.05 15.6 34.13C15.38 34.19 15.29 34.09 15.34 33.88Z" fill="#D9D9D9" fill-opacity="1.000000" fill-rule="nonzero"/>
	<path id="Vector" d="M20.9 34.13C21 34.05 21.1 33.96 21.2 33.87C21.24 34.13 21.12 34.19 20.9 34.13Z" fill="#D9D9D9" fill-opacity="1.000000" fill-rule="nonzero"/>
	<path id="Vector" d="M102.78 60.05C102.75 60.16 102.7 60.27 102.66 60.37C102.41 60.16 102.51 60.08 102.78 60.05Z" fill="#525252" fill-opacity="1.000000" fill-rule="nonzero"/>
	<path id="Vector" d="M108.62 42.92C108.58 42.84 108.54 42.77 108.53 42.69C108.53 42.67 108.6 42.63 108.63 42.59C108.63 42.7 108.63 42.81 108.63 42.91L108.62 42.92Z" fill="#D9D9D9" fill-opacity="1.000000" fill-rule="nonzero"/>
	<path id="Vector" d="M47.22 42.59C47.27 42.68 47.31 42.75 47.35 42.83C47.35 42.84 47.28 42.89 47.24 42.93C47.24 42.82 47.24 42.71 47.23 42.61L47.22 42.59Z" fill="#D9D9D9" fill-opacity="1.000000" fill-rule="nonzero"/>
	<path id="Vector" d="M30.61 33.88C30.7 33.96 30.81 34.05 30.9 34.14C30.68 34.2 30.56 34.14 30.61 33.88Z" fill="#D9D9D9" fill-opacity="1.000000" fill-rule="nonzero"/>
	<path id="Vector" d="M36.21 34.13C36.3 34.05 36.38 33.96 36.48 33.88C36.51 34.11 36.44 34.2 36.21 34.13Z" fill="#D9D9D9" fill-opacity="1.000000" fill-rule="nonzero"/>
	<path id="Vector" d="M47.23 74.04C47.27 74.13 47.31 74.2 47.33 74.28C47.33 74.3 47.25 74.34 47.21 74.36C47.21 74.26 47.21 74.15 47.22 74.04L47.23 74.04Z" fill="#D9D9D9" fill-opacity="1.000000" fill-rule="nonzero"/>
	<path id="Vector" d="M77.18 33.88C77.27 33.96 77.36 34.06 77.45 34.14C77.23 34.2 77.13 34.11 77.18 33.88Z" fill="#D9D9D9" fill-opacity="1.000000" fill-rule="nonzero"/>
	<path id="Vector" d="M82.76 34.13C82.85 34.05 82.95 33.96 83.05 33.87C83.1 34.12 82.99 34.19 82.76 34.13Z" fill="#D9D9D9" fill-opacity="1.000000" fill-rule="nonzero"/>
	<path id="Vector" d="M102.66 74.35C102.66 74.47 102.66 74.59 102.67 74.7C102.45 74.6 102.41 74.48 102.66 74.35Z" fill="#525252" fill-opacity="1.000000" fill-rule="nonzero"/>
	<path id="Vector" d="M47.23 74.67C47.31 74.75 47.39 74.82 47.47 74.91C47.27 74.95 47.18 74.87 47.23 74.67Z" fill="#D9D9D9" fill-opacity="1.000000" fill-rule="nonzero"/>
	<path id="Vector" d="M52.76 74.93C52.86 74.85 52.95 74.76 53.06 74.68C53.1 74.93 52.99 75 52.76 74.93Z" fill="#D9D9D9" fill-opacity="1.000000" fill-rule="nonzero"/>
	<path id="Vector" d="M62.51 74.67C62.6 74.75 62.69 74.83 62.78 74.93C62.54 75 62.47 74.89 62.51 74.67Z" fill="#D9D9D9" fill-opacity="1.000000" fill-rule="nonzero"/>
	<path id="Vector" d="M88.14 74.67C88.23 74.75 88.31 74.82 88.39 74.91C88.18 74.96 88.1 74.88 88.14 74.67Z" fill="#D9D9D9" fill-opacity="1.000000" fill-rule="nonzero"/>
	<path id="Vector" d="M93.69 74.93C93.78 74.85 93.89 74.76 93.98 74.68C94.02 74.93 93.91 75 93.69 74.93Z" fill="#D9D9D9" fill-opacity="1.000000" fill-rule="nonzero"/>
	<path id="Vector" d="M101.22 74.68C101.21 74.78 101.19 74.88 101.18 74.98C101.08 74.96 100.98 74.94 100.87 74.93C100.99 74.85 101.1 74.76 101.22 74.68Z" fill="#D9D9D9" fill-opacity="1.000000" fill-rule="nonzero"/>
	<path id="Vector" d="M102.76 74.67L103.06 74.93C102.84 74.99 102.72 74.93 102.76 74.67Z" fill="#D9D9D9" fill-opacity="1.000000" fill-rule="nonzero"/>
</svg>
