<svg width="220.857178" height="60.000244" viewBox="0 0 220.857 60.0002" fill="none" xmlns="http://www.w3.org/2000/svg" xmlns:xlink="http://www.w3.org/1999/xlink">
	<desc>
			Created with Pixso.
	</desc>
	<defs/>
	<path id="Vector" d="M217.53 34.17C218.01 34.78 218.45 35.26 218.85 35.61C219.25 35.96 219.6 36.24 219.89 36.43C220.18 36.62 220.41 36.77 220.59 36.89C220.76 37 220.85 37.12 220.85 37.25C220.85 37.41 220.76 37.54 220.56 37.66C220.37 37.77 220.13 37.83 219.84 37.83C219.49 37.83 218.98 37.74 218.32 37.58C217.66 37.42 216.94 37.12 216.15 36.67C215.36 36.22 214.57 35.58 213.76 34.74C212.96 33.91 212.22 32.82 211.55 31.47C210.68 32.18 209.49 32.93 207.98 33.73C206.47 34.54 204.85 35.27 203.13 35.95C201.41 36.62 199.7 37.18 198 37.63C196.29 38.08 194.83 38.31 193.61 38.31C192.93 38.31 192.25 38.24 191.56 38.11C190.87 37.99 190.23 37.75 189.65 37.42C189.07 37.08 188.6 36.61 188.23 36C187.86 35.39 187.68 34.6 187.68 33.64C187.68 32.51 188.22 31.3 189.32 30C190.41 28.7 191.79 27.5 193.46 26.39C195.13 25.29 196.95 24.37 198.91 23.65C200.87 22.93 202.72 22.57 204.46 22.57C205 22.57 205.49 22.58 205.93 22.59C206.36 22.61 206.76 22.68 207.11 22.81C207.72 23.19 208.11 23.63 208.27 24.13C208.43 24.63 208.44 25.13 208.32 25.62C208.19 26.12 207.94 26.59 207.57 27.02C207.2 27.45 206.77 27.8 206.29 28.05L205.71 28.05C205.55 28.05 205.35 28.05 205.11 28.03C204.87 28.01 204.6 28.01 204.31 28.01C203.32 28.01 202.29 28.17 201.23 28.49C200.17 28.81 199.15 29.22 198.19 29.72C197.22 30.21 196.34 30.75 195.54 31.33C194.73 31.91 194.09 32.45 193.61 32.96C194.93 32.96 196.22 32.8 197.49 32.48C198.76 32.16 199.99 31.76 201.18 31.28C202.37 30.8 203.5 30.27 204.58 29.69C205.66 29.11 206.65 28.58 207.57 28.1C208.48 27.62 209.32 27.22 210.08 26.9C210.83 26.58 211.47 26.42 211.98 26.42C212.78 26.42 213.4 26.66 213.84 27.14C214.27 27.62 214.65 28.24 214.97 28.99C215.29 29.75 215.63 30.58 215.98 31.5C216.34 32.41 216.85 33.3 217.53 34.17Z" fill="#F5E2C3" fill-opacity="1.000000" fill-rule="evenodd"/>
	<path id="Vector" d="M170.94 35.27C171.23 35.27 171.6 35.27 172.05 35.25C172.5 35.23 172.98 35.22 173.5 35.2C174.01 35.19 174.5 35.17 174.94 35.15C175.39 35.14 175.76 35.13 176.05 35.13C176.99 35.13 177.61 35.23 177.93 35.44C178.26 35.66 178.36 35.91 178.25 36.2C178.14 36.49 177.85 36.79 177.38 37.1C176.91 37.41 176.38 37.68 175.76 37.91C174.8 38.27 173.65 38.57 172.32 38.83C170.98 39.09 169.67 39.22 168.39 39.22C166.17 39.22 164.48 38.76 163.32 37.85C162.17 36.93 161.73 35.71 162.02 34.17C162.15 33.4 162.47 32.73 162.99 32.17C163.5 31.61 164.11 31.1 164.82 30.65C165.53 30.2 166.29 29.8 167.11 29.45C167.93 29.1 168.71 28.78 169.45 28.49C169.64 28.39 169.97 28.27 170.44 28.13C170.9 27.98 171.38 27.83 171.86 27.67C172.34 27.51 172.77 27.36 173.14 27.24C173.51 27.11 173.67 27.01 173.64 26.95C173.58 26.85 173.22 26.77 172.58 26.71C171.94 26.64 171.14 26.61 170.17 26.61C169.27 26.61 168.53 26.68 167.95 26.83C167.37 26.97 166.68 27.09 165.88 27.19C165.36 26.96 164.96 26.67 164.67 26.3C164.38 25.93 164.23 25.53 164.22 25.09C164.2 24.66 164.34 24.24 164.63 23.82C164.91 23.4 165.36 23.05 165.98 22.76C166.39 22.66 167 22.54 167.78 22.4C168.57 22.26 169.53 22.18 170.65 22.18C171.26 22.18 172.03 22.26 172.94 22.42C173.86 22.58 174.74 22.83 175.6 23.17C176.45 23.5 177.18 23.93 177.79 24.46C178.4 24.99 178.71 25.63 178.71 26.4C178.71 27.11 178.46 27.74 177.98 28.32C177.5 28.9 176.89 29.43 176.15 29.9C175.41 30.38 174.62 30.83 173.76 31.25C172.91 31.66 172.1 32.03 171.33 32.35C171.07 32.44 170.72 32.57 170.27 32.73C169.82 32.89 169.36 33.06 168.89 33.24C168.43 33.41 168.02 33.6 167.66 33.79C167.31 33.98 167.12 34.16 167.08 34.31C167.02 34.63 167.32 34.87 167.98 35.03C168.64 35.19 169.62 35.27 170.94 35.27Z" fill="#F5E2C3" fill-opacity="1.000000" fill-rule="evenodd"/>
	<path id="Vector" d="M146.49 22.23C147.55 22.23 148.38 22.49 148.99 23C149.61 23.52 150.07 24.14 150.38 24.88C150.68 25.62 150.87 26.38 150.95 27.16C151.03 27.95 151.07 28.62 151.07 29.16C151.07 32.43 150.51 35.72 149.39 39C148.28 42.29 146.65 45.33 144.52 48.13C142.39 50.92 139.79 53.33 136.7 55.37C133.62 57.41 130.1 58.79 126.14 59.53C125.79 59.6 125.36 59.67 124.84 59.75C124.33 59.83 123.83 59.89 123.35 59.94C122.87 59.99 122.45 60.01 122.12 59.99C121.78 59.97 121.61 59.9 121.61 59.77C121.61 59.55 121.83 59.29 122.26 59C122.7 58.71 123.27 58.38 123.97 58.02C124.68 57.65 125.49 57.25 126.39 56.81C127.29 56.38 128.2 55.89 129.13 55.34C131.45 54.03 133.63 52.38 135.67 50.41C137.71 48.44 139.49 46.28 141 43.94C142.51 41.6 143.7 39.12 144.57 36.53C145.43 33.93 145.87 31.34 145.87 28.78C144.97 29.77 143.92 30.83 142.73 31.95C141.54 33.08 140.29 34.11 138.97 35.06C137.65 36 136.29 36.79 134.9 37.42C133.5 38.04 132.14 38.35 130.82 38.35C130.34 38.35 129.78 38.27 129.13 38.11C128.49 37.95 127.87 37.65 127.28 37.2C126.68 36.75 126.18 36.12 125.76 35.3C125.34 34.48 125.13 33.41 125.13 32.1C125.13 31.65 125.18 31.08 125.28 30.39C125.37 29.7 125.49 28.99 125.64 28.25C125.78 27.51 125.95 26.79 126.14 26.08C126.34 25.38 126.55 24.78 126.77 24.3C127.25 23.82 127.77 23.48 128.31 23.29C128.86 23.1 129.37 23.07 129.83 23.22C130.3 23.36 130.69 23.67 131.01 24.13C131.34 24.6 131.51 25.25 131.54 26.08C130.74 28.1 130.34 30.2 130.34 32.39C130.34 32.84 130.48 33.06 130.77 33.06C131.83 33.06 132.88 32.8 133.89 32.27C134.9 31.74 135.89 31.07 136.82 30.27C137.75 29.47 138.66 28.59 139.55 27.65C140.43 26.7 141.28 25.82 142.08 25.02C142.89 24.22 143.66 23.55 144.38 23.03C145.1 22.5 145.81 22.23 146.49 22.23Z" fill="#F5E2C3" fill-opacity="1.000000" fill-rule="evenodd"/>
	<path id="Vector" d="M100.3 22.47C100.75 22.47 101.4 22.51 102.25 22.59C103.1 22.67 104.03 22.82 105.05 23.05C106.06 23.27 107.09 23.58 108.13 23.96C109.18 24.35 110.13 24.84 111 25.43C111.87 26.03 112.58 26.75 113.12 27.6C113.67 28.45 113.94 29.45 113.94 30.61C113.94 31.66 113.65 32.59 113.05 33.37C112.46 34.16 111.68 34.82 110.74 35.35C109.79 35.88 108.72 36.31 107.53 36.65C106.34 36.98 105.17 37.25 104.01 37.44C102.85 37.63 101.77 37.76 100.76 37.83C99.74 37.89 98.93 37.92 98.32 37.92C97.29 37.92 96.29 37.91 95.33 37.87C94.37 37.84 93.53 37.75 92.82 37.58C91.99 39.45 91.25 41.38 90.6 43.38C89.96 45.39 89.39 47.22 88.89 48.87C88.39 50.52 87.94 51.89 87.54 52.96C87.14 54.04 86.76 54.57 86.41 54.57C86.05 54.57 85.78 54.29 85.59 53.73C85.4 53.17 85.27 52.42 85.2 51.49C85.14 50.56 85.15 49.48 85.23 48.25C85.31 47.01 85.46 45.71 85.68 44.35C85.91 42.98 86.19 41.6 86.53 40.21C86.87 38.81 87.28 37.49 87.76 36.24C86.18 35.53 85.07 34.98 84.43 34.58C83.79 34.18 83.47 33.85 83.47 33.59C83.47 33.43 83.64 33.31 84 33.23C84.35 33.15 84.8 33.11 85.35 33.11C85.67 33.11 86.18 33.12 86.89 33.16C87.6 33.19 88.37 33.22 89.21 33.25C89.78 31.87 90.44 30.57 91.16 29.35C91.88 28.13 92.61 27.08 93.35 26.18C93.16 25.66 93.1 25.13 93.18 24.59C93.26 24.04 93.47 23.5 93.79 22.95C93.98 22.92 94.22 22.87 94.51 22.81C94.8 22.74 95.19 22.69 95.69 22.64C96.19 22.59 96.81 22.55 97.55 22.52C98.29 22.49 99.2 22.47 100.3 22.47ZM94.8 33.16C95.38 33.16 96.13 33.13 97.07 33.08C98 33.04 98.98 32.96 100.01 32.87C101.04 32.77 102.07 32.66 103.12 32.53C104.16 32.4 105.1 32.24 105.91 32.05C106.73 31.86 107.41 31.64 107.94 31.4C108.47 31.16 108.74 30.88 108.74 30.56C108.74 30.17 108.38 29.81 107.67 29.47C106.97 29.14 106.09 28.86 105.05 28.63C104 28.41 102.89 28.24 101.72 28.13C100.55 28.01 99.49 27.99 98.56 28.06C97.92 28.83 97.27 29.59 96.63 30.34C95.99 31.1 95.38 32.03 94.8 33.16Z" fill="#F5E2C3" fill-opacity="1.000000" fill-rule="evenodd"/>
	<path id="Vector" d="M63.07 15.4C63.87 15.46 64.73 15.57 65.65 15.71C66.57 15.85 67.42 16.03 68.21 16.24C68.99 16.45 69.68 16.66 70.28 16.89C70.87 17.11 71.27 17.31 71.46 17.47C71.46 17.63 71.33 17.83 71.07 18.07C70.82 18.31 70.49 18.53 70.09 18.74C69.68 18.95 69.2 19.14 68.64 19.32C68.08 19.5 67.49 19.6 66.88 19.63C65.75 19.73 64.54 19.82 63.24 19.9C61.94 19.98 60.61 20.06 59.26 20.14C57.91 20.22 56.58 20.3 55.28 20.38C53.98 20.46 52.75 20.55 51.59 20.64C50.76 20.71 50.03 20.77 49.42 20.84C48.81 20.9 48.25 20.96 47.73 21C47.22 21.05 46.73 21.1 46.26 21.15C45.8 21.2 45.29 21.24 44.75 21.27C44.29 21.11 43.93 20.87 43.64 20.55C43.35 20.23 43.15 19.87 43.06 19.49C42.96 19.1 42.97 18.7 43.08 18.28C43.19 17.87 43.41 17.5 43.73 17.18C46.75 16.6 49.93 16.17 53.26 15.88C56.58 15.59 59.85 15.43 63.07 15.4Z" fill="#F5E2C3" fill-opacity="1.000000" fill-rule="evenodd"/>
	<path id="Vector" d="M52.32 23.19C53.86 23.19 55.01 23.76 55.76 24.9C56.52 26.04 56.83 27.45 56.7 29.11C57.48 28.25 58.29 27.39 59.14 26.54C59.99 25.69 60.89 24.93 61.84 24.25C62.79 23.58 63.79 23.03 64.85 22.59C65.91 22.16 67.04 21.94 68.23 21.94C69.8 21.94 71.11 22.26 72.14 22.91C73.16 23.55 73.98 24.32 74.57 25.24C75.16 26.15 75.58 27.12 75.82 28.13C76.07 29.14 76.19 30.01 76.19 30.75C76.19 32.68 75.91 34.6 75.37 36.53C74.82 38.45 74.18 40.14 73.44 41.58C72.38 43.73 71.49 45.19 70.79 45.96C70.08 46.73 69.61 47.11 69.39 47.11C69.19 47.11 69.11 46.95 69.12 46.63C69.14 46.31 69.19 45.94 69.29 45.5C69.39 45.07 69.51 44.62 69.65 44.15C69.8 43.69 69.92 43.3 70.01 42.98C70.37 41.85 70.75 40.43 71.15 38.72C71.55 37 71.75 34.89 71.75 32.39C71.75 30.69 71.39 29.39 70.66 28.49C69.94 27.59 69.18 27.14 68.37 27.14C67.44 27.14 66.54 27.41 65.67 27.96C64.81 28.5 63.95 29.18 63.09 29.98C62.24 30.78 61.41 31.66 60.61 32.63C59.81 33.59 59 34.47 58.2 35.27C57.4 36.08 56.6 36.75 55.81 37.3C55.02 37.84 54.25 38.11 53.47 38.11C52.48 38.11 51.79 37.76 51.42 37.06C51.05 36.35 50.85 35.52 50.8 34.55C50.75 33.59 50.8 32.62 50.94 31.64C51.09 30.66 51.21 29.9 51.3 29.35C50.6 29.8 49.86 30.42 49.08 31.21C48.31 31.99 47.52 32.76 46.7 33.52C45.88 34.27 45.03 34.93 44.17 35.49C43.3 36.05 42.41 36.33 41.51 36.33C41.1 36.33 40.69 36.22 40.31 36C39.92 35.77 39.59 35.48 39.3 35.13C39.01 34.78 38.77 34.38 38.6 33.95C38.42 33.52 38.33 33.08 38.33 32.63C38.33 31.28 38.42 30.14 38.6 29.21C38.77 28.28 38.97 27.53 39.18 26.96C39.38 26.38 39.59 25.97 39.78 25.71C39.97 25.46 40.07 25.34 40.07 25.34C40.55 24.95 41.04 24.66 41.54 24.45C42.04 24.24 42.49 24.2 42.91 24.31C43.33 24.42 43.69 24.72 44 25.19C44.3 25.66 44.52 26.38 44.65 27.33L44.17 28.78C44.71 28.33 45.32 27.78 46 27.15C46.67 26.51 47.37 25.9 48.1 25.31C48.82 24.73 49.54 24.22 50.27 23.81C50.99 23.4 51.67 23.19 52.32 23.19Z" fill="#F5E2C3" fill-opacity="1.000000" fill-rule="evenodd"/>
	<path id="Vector" d="M21.07 37.3C20.91 37.36 20.37 37.47 19.45 37.63C18.54 37.79 17.31 37.89 15.76 37.92C13.87 37.92 11.99 37.62 10.12 37.03C8.26 36.44 6.58 35.57 5.07 34.43C3.57 33.29 2.35 31.88 1.41 30.2C0.47 28.51 0 26.56 0 24.35C0 21.69 0.61 19.24 1.84 17.01C3.08 14.78 4.64 12.77 6.52 10.97C8.41 9.17 10.49 7.59 12.77 6.23C15.06 4.86 17.27 3.73 19.4 2.81C21.54 1.9 23.47 1.21 25.19 0.74C26.91 0.28 28.14 0.03 28.88 0C29.49 0.12 30 0.36 30.42 0.69C30.84 1.03 31.12 1.42 31.27 1.87C31.41 2.32 31.4 2.81 31.22 3.34C31.04 3.87 30.65 4.37 30.04 4.86C29.65 5.02 28.76 5.3 27.36 5.7C25.96 6.1 24.35 6.66 22.51 7.38C20.68 8.1 18.75 8.98 16.7 10.01C14.66 11.03 12.79 12.24 11.09 13.62C9.38 15 7.98 16.56 6.87 18.31C5.76 20.06 5.2 22.01 5.2 24.16C5.2 26.05 5.7 27.66 6.7 28.99C7.69 30.33 8.96 31.42 10.48 32.27C12.01 33.12 13.69 33.71 15.52 34.05C17.35 34.38 19.11 34.47 20.78 34.31C23 34.12 24.52 34.08 25.36 34.19C26.2 34.3 26.53 34.51 26.37 34.82C26.21 35.12 25.63 35.49 24.64 35.92C23.64 36.36 22.45 36.81 21.07 37.3Z" fill="#F5E2C3" fill-opacity="1.000000" fill-rule="evenodd"/>
</svg>
