<svg width="147.237793" height="40.000000" viewBox="0 0 147.238 40" fill="none" xmlns="http://www.w3.org/2000/svg" xmlns:xlink="http://www.w3.org/1999/xlink">
	<desc>
			Created with Pixso.
	</desc>
	<defs/>
	<path id="Vector" d="M145.02 22.78C145.34 23.18 145.63 23.5 145.9 23.74C146.17 23.97 146.4 24.16 146.59 24.28C146.78 24.41 146.94 24.51 147.06 24.59C147.17 24.66 147.23 24.74 147.23 24.83C147.23 24.94 147.17 25.03 147.04 25.1C146.91 25.18 146.75 25.22 146.56 25.22C146.32 25.22 145.98 25.16 145.55 25.05C145.11 24.95 144.62 24.74 144.1 24.45C143.57 24.15 143.04 23.72 142.51 23.16C141.97 22.61 141.48 21.88 141.03 20.98C140.45 21.45 139.66 21.95 138.65 22.49C137.64 23.02 136.57 23.51 135.42 23.96C134.27 24.41 133.13 24.79 132 25.09C130.86 25.39 129.88 25.54 129.07 25.54C128.62 25.54 128.16 25.49 127.7 25.41C127.24 25.32 126.82 25.17 126.43 24.94C126.05 24.72 125.73 24.4 125.49 24C125.24 23.59 125.12 23.07 125.12 22.42C125.12 21.67 125.48 20.87 126.21 20C126.94 19.13 127.86 18.33 128.97 17.59C130.09 16.86 131.3 16.25 132.61 15.77C133.91 15.28 135.14 15.04 136.3 15.04C136.67 15.04 136.99 15.05 137.28 15.06C137.57 15.07 137.84 15.12 138.07 15.2C138.48 15.46 138.74 15.76 138.84 16.09C138.95 16.42 138.96 16.75 138.87 17.08C138.79 17.41 138.62 17.72 138.38 18.01C138.13 18.3 137.85 18.53 137.52 18.7L137.14 18.7C137.03 18.7 136.9 18.7 136.74 18.69C136.58 18.67 136.4 18.67 136.21 18.67C135.54 18.67 134.86 18.78 134.15 18.99C133.44 19.2 132.77 19.48 132.12 19.81C131.48 20.14 130.89 20.5 130.36 20.88C129.82 21.27 129.39 21.63 129.07 21.97C129.95 21.97 130.81 21.87 131.66 21.65C132.5 21.44 133.32 21.17 134.12 20.85C134.91 20.53 135.67 20.18 136.38 19.79C137.1 19.41 137.77 19.05 138.38 18.73C138.99 18.41 139.54 18.15 140.05 17.93C140.55 17.72 140.97 17.61 141.32 17.61C141.85 17.61 142.27 17.77 142.56 18.09C142.85 18.41 143.1 18.82 143.31 19.33C143.53 19.83 143.75 20.39 143.99 21C144.22 21.61 144.56 22.2 145.02 22.78Z" fill="#BE713C" fill-opacity="1.000000" fill-rule="evenodd"/>
	<path id="Vector" d="M113.96 23.51C114.15 23.51 114.4 23.51 114.7 23.5C115 23.49 115.32 23.48 115.66 23.47C116.01 23.46 116.33 23.45 116.63 23.43C116.93 23.42 117.17 23.42 117.37 23.42C117.99 23.42 118.41 23.49 118.62 23.63C118.84 23.77 118.91 23.94 118.83 24.13C118.75 24.33 118.56 24.53 118.25 24.73C117.94 24.94 117.58 25.12 117.17 25.27C116.53 25.51 115.77 25.71 114.88 25.88C113.99 26.06 113.11 26.15 112.26 26.15C110.78 26.15 109.65 25.84 108.88 25.23C108.11 24.62 107.82 23.8 108.01 22.78C108.1 22.26 108.31 21.82 108.66 21.45C109 21.07 109.41 20.73 109.88 20.43C110.35 20.13 110.86 19.87 111.4 19.63C111.95 19.4 112.47 19.18 112.96 18.99C113.09 18.93 113.31 18.85 113.62 18.75C113.93 18.65 114.25 18.55 114.57 18.45C114.89 18.34 115.18 18.24 115.42 18.16C115.67 18.07 115.78 18.01 115.76 17.96C115.72 17.9 115.48 17.85 115.05 17.8C114.62 17.76 114.09 17.74 113.45 17.74C112.85 17.74 112.35 17.79 111.97 17.88C111.58 17.98 111.12 18.06 110.58 18.12C110.24 17.97 109.97 17.78 109.78 17.53C109.59 17.28 109.49 17.02 109.47 16.73C109.46 16.44 109.56 16.16 109.75 15.88C109.94 15.6 110.24 15.36 110.65 15.17C110.93 15.11 111.33 15.03 111.85 14.93C112.38 14.84 113.02 14.79 113.77 14.79C114.17 14.79 114.68 14.84 115.29 14.95C115.9 15.05 116.49 15.22 117.06 15.44C117.63 15.66 118.12 15.95 118.52 16.31C118.93 16.66 119.14 17.09 119.14 17.6C119.14 18.07 118.97 18.49 118.65 18.88C118.33 19.26 117.92 19.62 117.43 19.93C116.94 20.25 116.41 20.55 115.84 20.83C115.27 21.11 114.73 21.35 114.22 21.56C114.05 21.63 113.81 21.71 113.51 21.82C113.21 21.93 112.9 22.04 112.59 22.16C112.28 22.27 112.01 22.4 111.77 22.53C111.54 22.65 111.41 22.77 111.39 22.87C111.35 23.09 111.54 23.25 111.98 23.35C112.42 23.46 113.08 23.51 113.96 23.51Z" fill="#BE713C" fill-opacity="1.000000" fill-rule="evenodd"/>
	<path id="Vector" d="M97.65 14.82C98.36 14.82 98.92 14.99 99.33 15.33C99.74 15.67 100.04 16.09 100.25 16.58C100.45 17.08 100.58 17.58 100.63 18.11C100.69 18.63 100.71 19.08 100.71 19.44C100.71 21.62 100.34 23.81 99.59 26C98.85 28.19 97.77 30.22 96.35 32.08C94.93 33.94 93.19 35.55 91.13 36.91C89.08 38.27 86.73 39.19 84.09 39.69C83.86 39.73 83.57 39.78 83.23 39.83C82.88 39.88 82.55 39.93 82.23 39.96C81.91 39.99 81.63 40 81.41 39.99C81.18 39.98 81.07 39.93 81.07 39.85C81.07 39.7 81.22 39.53 81.51 39.33C81.79 39.14 82.18 38.92 82.65 38.68C83.12 38.43 83.65 38.16 84.25 37.87C84.85 37.58 85.47 37.26 86.09 36.89C87.63 36.02 89.08 34.92 90.44 33.61C91.8 32.29 92.99 30.85 94 29.29C95 27.73 95.8 26.08 96.37 24.35C96.95 22.62 97.24 20.89 97.24 19.18C96.64 19.85 95.95 20.55 95.15 21.3C94.36 22.05 93.52 22.74 92.64 23.37C91.77 24 90.86 24.53 89.93 24.94C89 25.36 88.09 25.57 87.21 25.57C86.89 25.57 86.52 25.51 86.09 25.41C85.66 25.3 85.25 25.1 84.85 24.8C84.45 24.5 84.12 24.08 83.84 23.53C83.56 22.99 83.42 22.27 83.42 21.4C83.42 21.1 83.45 20.72 83.52 20.26C83.58 19.8 83.66 19.32 83.76 18.83C83.85 18.34 83.97 17.86 84.09 17.39C84.22 16.92 84.36 16.52 84.51 16.2C84.83 15.88 85.18 15.65 85.54 15.53C85.9 15.4 86.24 15.38 86.55 15.48C86.86 15.57 87.13 15.78 87.34 16.09C87.55 16.4 87.67 16.83 87.69 17.39C87.16 18.73 86.89 20.13 86.89 21.59C86.89 21.89 86.99 22.04 87.18 22.04C87.89 22.04 88.58 21.86 89.26 21.51C89.93 21.16 90.59 20.71 91.21 20.18C91.83 19.64 92.44 19.06 93.03 18.43C93.62 17.8 94.18 17.21 94.72 16.68C95.26 16.15 95.77 15.7 96.25 15.35C96.73 15 97.2 14.82 97.65 14.82Z" fill="#BE713C" fill-opacity="1.000000" fill-rule="evenodd"/>
	<path id="Vector" d="M66.86 14.98C67.16 14.98 67.6 15.01 68.16 15.06C68.73 15.11 69.35 15.21 70.03 15.36C70.7 15.51 71.39 15.72 72.09 15.97C72.78 16.23 73.42 16.56 74 16.95C74.58 17.35 75.05 17.83 75.41 18.4C75.78 18.96 75.96 19.63 75.96 20.4C75.96 21.11 75.76 21.72 75.37 22.25C74.97 22.77 74.45 23.21 73.82 23.56C73.19 23.92 72.48 24.2 71.68 24.43C70.89 24.65 70.11 24.83 69.34 24.96C68.57 25.09 67.84 25.17 67.17 25.22C66.49 25.26 65.95 25.28 65.54 25.28C64.86 25.28 64.19 25.27 63.55 25.25C62.91 25.23 62.35 25.16 61.88 25.05C61.32 26.3 60.83 27.58 60.4 28.92C59.97 30.26 59.59 31.48 59.26 32.58C58.93 33.68 58.63 34.59 58.36 35.31C58.09 36.02 57.84 36.38 57.6 36.38C57.37 36.38 57.19 36.19 57.06 35.82C56.93 35.45 56.84 34.95 56.8 34.33C56.76 33.71 56.76 32.99 56.82 32.16C56.87 31.34 56.97 30.47 57.12 29.56C57.27 28.65 57.46 27.73 57.68 26.8C57.91 25.87 58.18 24.99 58.5 24.16C57.45 23.69 56.71 23.32 56.29 23.05C55.86 22.78 55.64 22.56 55.64 22.39C55.64 22.28 55.76 22.2 56 22.15C56.23 22.1 56.53 22.07 56.9 22.07C57.11 22.07 57.45 22.08 57.93 22.1C58.4 22.12 58.91 22.15 59.47 22.17C59.85 21.25 60.29 20.38 60.77 19.57C61.25 18.75 61.74 18.05 62.23 17.45C62.1 17.11 62.07 16.75 62.12 16.39C62.17 16.03 62.31 15.66 62.52 15.3C62.65 15.28 62.81 15.25 63 15.2C63.2 15.16 63.46 15.12 63.79 15.09C64.12 15.06 64.54 15.03 65.03 15.01C65.52 14.99 66.13 14.98 66.86 14.98ZM63.2 22.1C63.58 22.1 64.09 22.09 64.71 22.05C65.33 22.02 65.98 21.97 66.67 21.91C67.36 21.85 68.05 21.77 68.74 21.69C69.44 21.6 70.06 21.49 70.61 21.36C71.15 21.24 71.6 21.09 71.96 20.93C72.31 20.77 72.49 20.58 72.49 20.37C72.49 20.11 72.25 19.87 71.78 19.65C71.31 19.42 70.73 19.24 70.03 19.09C69.33 18.94 68.59 18.82 67.81 18.75C67.03 18.67 66.33 18.66 65.71 18.7C65.28 19.21 64.85 19.72 64.42 20.23C63.99 20.73 63.58 21.35 63.2 22.1Z" fill="#BE713C" fill-opacity="1.000000" fill-rule="evenodd"/>
	<path id="Vector" d="M42.04 10.26C42.58 10.31 43.15 10.38 43.76 10.47C44.38 10.57 44.94 10.69 45.47 10.82C45.99 10.96 46.45 11.11 46.85 11.26C47.25 11.41 47.51 11.54 47.64 11.64C47.64 11.75 47.55 11.88 47.38 12.04C47.21 12.2 46.99 12.35 46.72 12.49C46.45 12.63 46.13 12.76 45.76 12.88C45.38 13 44.99 13.06 44.58 13.09C43.83 13.15 43.02 13.21 42.16 13.26C41.29 13.32 40.4 13.37 39.5 13.42C38.6 13.48 37.72 13.53 36.85 13.58C35.98 13.64 35.16 13.7 34.39 13.76C33.84 13.8 33.35 13.85 32.95 13.89C32.54 13.93 32.16 13.97 31.82 14C31.48 14.03 31.15 14.07 30.84 14.1C30.53 14.13 30.19 14.16 29.83 14.18C29.53 14.07 29.28 13.91 29.09 13.7C28.9 13.48 28.77 13.25 28.7 12.99C28.64 12.73 28.64 12.47 28.72 12.19C28.79 11.91 28.94 11.66 29.15 11.45C31.17 11.06 33.28 10.78 35.5 10.58C37.72 10.39 39.9 10.28 42.04 10.26Z" fill="#BE713C" fill-opacity="1.000000" fill-rule="evenodd"/>
	<path id="Vector" d="M34.88 15.46C35.9 15.46 36.67 15.84 37.17 16.6C37.68 17.36 37.89 18.3 37.8 19.41C38.32 18.83 38.86 18.26 39.42 17.69C39.99 17.12 40.59 16.62 41.23 16.17C41.86 15.72 42.53 15.35 43.23 15.06C43.94 14.77 44.69 14.63 45.48 14.63C46.53 14.63 47.4 14.84 48.09 15.27C48.77 15.7 49.32 16.21 49.71 16.82C50.11 17.43 50.39 18.08 50.55 18.75C50.71 19.42 50.79 20.01 50.79 20.5C50.79 21.78 50.61 23.07 50.24 24.35C49.88 25.63 49.45 26.76 48.96 27.72C48.25 29.15 47.66 30.12 47.19 30.64C46.72 31.15 46.41 31.41 46.26 31.41C46.13 31.41 46.07 31.3 46.08 31.09C46.09 30.87 46.13 30.62 46.19 30.33C46.26 30.04 46.34 29.75 46.43 29.43C46.53 29.12 46.61 28.86 46.67 28.65C46.91 27.9 47.16 26.95 47.43 25.81C47.7 24.66 47.83 23.26 47.83 21.59C47.83 20.46 47.59 19.59 47.11 18.99C46.63 18.39 46.12 18.09 45.58 18.09C44.96 18.09 44.36 18.27 43.78 18.64C43.2 19 42.63 19.45 42.06 19.99C41.49 20.52 40.94 21.11 40.4 21.75C39.87 22.39 39.33 22.98 38.8 23.51C38.26 24.05 37.73 24.5 37.21 24.86C36.68 25.23 36.16 25.41 35.65 25.41C34.98 25.41 34.53 25.17 34.28 24.7C34.03 24.23 33.9 23.68 33.86 23.03C33.83 22.39 33.86 21.74 33.96 21.09C34.06 20.44 34.14 19.93 34.2 19.57C33.73 19.87 33.24 20.28 32.72 20.8C32.21 21.33 31.68 21.84 31.13 22.34C30.58 22.85 30.02 23.28 29.44 23.66C28.86 24.03 28.27 24.22 27.67 24.22C27.4 24.22 27.13 24.15 26.87 24C26.61 23.85 26.39 23.65 26.2 23.42C26 23.18 25.85 22.92 25.73 22.63C25.61 22.34 25.55 22.05 25.55 21.75C25.55 20.85 25.61 20.09 25.73 19.47C25.85 18.85 25.98 18.35 26.12 17.97C26.25 17.58 26.39 17.31 26.52 17.14C26.65 16.97 26.71 16.89 26.71 16.89C27.03 16.63 27.36 16.44 27.69 16.3C28.02 16.16 28.33 16.13 28.61 16.2C28.89 16.28 29.13 16.48 29.33 16.79C29.53 17.11 29.68 17.58 29.76 18.22L29.44 19.18C29.81 18.88 30.21 18.52 30.66 18.1C31.11 17.67 31.58 17.26 32.06 16.87C32.54 16.48 33.03 16.15 33.51 15.87C33.99 15.6 34.45 15.46 34.88 15.46Z" fill="#BE713C" fill-opacity="1.000000" fill-rule="evenodd"/>
	<path id="Vector" d="M14.04 24.86C13.94 24.9 13.58 24.98 12.97 25.09C12.36 25.19 11.54 25.26 10.51 25.28C9.24 25.28 7.99 25.08 6.75 24.69C5.5 24.29 4.38 23.71 3.38 22.95C2.38 22.19 1.56 21.25 0.94 20.13C0.31 19.01 0 17.71 0 16.23C0 14.46 0.41 12.82 1.23 11.34C2.05 9.85 3.09 8.51 4.35 7.31C5.6 6.11 6.99 5.06 8.51 4.15C10.04 3.24 11.51 2.48 12.93 1.87C14.36 1.26 15.65 0.8 16.79 0.49C17.94 0.18 18.76 0.02 19.25 0C19.66 0.08 20 0.24 20.28 0.46C20.56 0.68 20.75 0.95 20.84 1.25C20.94 1.55 20.93 1.87 20.81 2.23C20.69 2.58 20.43 2.91 20.02 3.24C19.77 3.34 19.17 3.53 18.24 3.8C17.31 4.06 16.23 4.44 15.01 4.92C13.79 5.4 12.5 5.98 11.13 6.67C9.77 7.35 8.52 8.16 7.39 9.08C6.25 10 5.32 11.04 4.58 12.2C3.84 13.37 3.47 14.67 3.47 16.1C3.47 17.36 3.8 18.44 4.46 19.33C5.13 20.21 5.97 20.94 6.99 21.51C8.01 22.08 9.12 22.47 10.35 22.7C11.57 22.92 12.74 22.98 13.85 22.87C15.33 22.74 16.35 22.72 16.9 22.79C17.46 22.87 17.69 23.01 17.58 23.21C17.47 23.41 17.09 23.66 16.42 23.95C15.76 24.24 14.97 24.54 14.04 24.86Z" fill="#BE713C" fill-opacity="1.000000" fill-rule="evenodd"/>
</svg>
