<svg width="32.000000" height="32.000000" viewBox="0 0 32 32" fill="none" xmlns="http://www.w3.org/2000/svg" xmlns:xlink="http://www.w3.org/1999/xlink">
	<desc>
			Created with Pixso.
	</desc>
	<defs>
		<linearGradient x1="15.970909" y1="0.094547" x2="15.970909" y2="32.094601" id="paint_linear_27_162_0" gradientUnits="userSpaceOnUse">
			<stop stop-color="#F39440"/>
			<stop offset="1.000000" stop-color="#E7680B"/>
		</linearGradient>
	</defs>
	<mask id="mask27_166" mask-type="alpha" maskUnits="userSpaceOnUse" x="0.000000" y="0.000000" width="32.000000" height="32.000000">
		<rect id="Rectangle 25" width="32.000000" height="32.000000" fill="#D9D9D9" fill-opacity="1.000000"/>
	</mask>
	<g mask="url(#mask27_166)">
		<rect id="Frame" rx="-0.500000" width="220.818192" height="31.000000" transform="translate(0.500000 0.500000)" fill="#FFFFFF" fill-opacity="0"/>
		<path id="Vector" d="M16 32C24.83 32 32 24.83 32 16C32 7.16 24.83 0 16 0C7.16 0 0 7.16 0 16C0 24.83 7.16 32 16 32Z" fill="url(#paint_linear_27_162_0)" fill-opacity="1.000000" fill-rule="nonzero"/>
		<path id="Vector" d="M24.85 18.37L29.09 16L24.85 13.62L27.33 9.45L22.48 9.52L22.54 4.66L18.37 7.14L16 2.9L13.62 7.14L9.45 4.66L9.52 9.52L4.66 9.45L7.14 13.62L2.9 16L7.14 18.37L4.66 22.54L9.52 22.48L9.45 27.33L13.62 24.85L16 29.09L18.37 24.85L22.54 27.33L22.48 22.48L27.33 22.54L24.85 18.37ZM21.68 25.84L18.05 23.66L16 27.37L13.94 23.69L10.3 25.87L10.36 21.65L6.14 21.71L8.32 18.08L4.62 16L8.31 13.94L6.13 10.3L10.34 10.36L10.29 6.14L13.92 8.32L16 4.62L18.05 8.3L21.69 6.12L21.63 10.34L25.85 10.28L23.67 13.92L27.37 16L23.69 18.05L25.87 21.69L21.65 21.63L21.68 25.84ZM22.54 14.75C22.3 14.67 22.07 14.54 21.89 14.37C21.7 14.19 21.55 13.98 21.45 13.75C21.35 13.51 21.31 13.25 21.32 13C21.33 12.74 21.39 12.49 21.51 12.26C21.66 12.03 21.76 11.76 21.78 11.47C21.8 11.19 21.75 10.91 21.64 10.65C21.33 10.16 20.64 10.09 19.75 10.51C19.49 10.63 19.22 10.7 18.93 10.7C18.55 10.7 18.19 10.58 17.88 10.35C17.58 10.13 17.35 9.81 17.24 9.45C16.87 8.41 16.36 8.19 16 8.19C15.63 8.19 15.12 8.41 14.75 9.45C14.64 9.81 14.42 10.12 14.12 10.34C13.82 10.56 13.46 10.69 13.09 10.69C12.8 10.69 12.53 10.63 12.27 10.5C11.38 10.08 10.69 10.16 10.38 10.64C10.26 10.9 10.22 11.18 10.24 11.47C10.26 11.75 10.36 12.02 10.51 12.26C10.63 12.49 10.69 12.74 10.7 13C10.71 13.26 10.66 13.51 10.56 13.75C10.46 13.99 10.31 14.2 10.12 14.37C9.92 14.55 9.7 14.68 9.45 14.75C8.41 15.12 8.19 15.63 8.19 16C8.19 16.36 8.41 16.87 9.45 17.24C9.69 17.32 9.92 17.45 10.1 17.62C10.29 17.8 10.44 18.01 10.54 18.25C10.64 18.48 10.68 18.74 10.67 18.99C10.66 19.25 10.6 19.5 10.48 19.73C10.33 19.96 10.23 20.23 10.21 20.52C10.19 20.8 10.24 21.08 10.35 21.34C10.66 21.84 11.35 21.9 12.24 21.48C12.51 21.35 12.79 21.29 13.09 21.3C13.46 21.3 13.82 21.43 14.12 21.65C14.42 21.87 14.64 22.18 14.75 22.54C15.12 23.58 15.63 23.8 16 23.8C16.36 23.8 16.87 23.58 17.24 22.54C17.35 22.18 17.57 21.87 17.87 21.65C18.17 21.43 18.53 21.3 18.9 21.3C19.19 21.3 19.46 21.36 19.72 21.49C20.61 21.91 21.3 21.84 21.61 21.35C21.73 21.09 21.77 20.81 21.75 20.52C21.73 20.24 21.63 19.97 21.48 19.73C21.36 19.5 21.3 19.25 21.29 18.99C21.28 18.73 21.33 18.48 21.43 18.24C21.53 18 21.68 17.79 21.87 17.62C22.07 17.44 22.29 17.31 22.54 17.24C23.58 16.87 23.8 16.36 23.8 16C23.8 15.63 23.55 15.12 22.54 14.75ZM22.25 16.42C21.89 16.54 21.56 16.73 21.29 16.99C21.01 17.25 20.8 17.56 20.65 17.91C20.51 18.26 20.44 18.64 20.45 19.01C20.47 19.39 20.56 19.76 20.73 20.1C20.98 20.61 20.93 20.82 20.91 20.88C20.88 20.88 20.84 20.88 20.8 20.88C20.57 20.86 20.34 20.79 20.13 20.68C19.75 20.5 19.33 20.41 18.9 20.42C18.35 20.43 17.82 20.6 17.37 20.92C16.93 21.24 16.59 21.7 16.42 22.22C16.23 22.75 16.03 22.89 16 22.9C15.96 22.9 15.76 22.75 15.57 22.22C15.4 21.7 15.06 21.24 14.62 20.92C14.17 20.6 13.64 20.43 13.09 20.42C12.68 20.43 12.27 20.52 11.9 20.7C11.69 20.81 11.47 20.88 11.23 20.9C11.2 20.91 11.16 20.91 11.12 20.9C11.12 20.9 11.06 20.64 11.3 20.12C11.47 19.78 11.57 19.41 11.58 19.03C11.59 18.66 11.53 18.28 11.38 17.93C11.24 17.58 11.02 17.27 10.75 17.01C10.47 16.75 10.14 16.56 9.78 16.44C9.25 16.25 9.11 16.05 9.11 16.02C9.11 15.98 9.25 15.78 9.78 15.6C10.14 15.47 10.47 15.28 10.75 15.02C11.02 14.76 11.24 14.45 11.38 14.1C11.53 13.75 11.59 13.38 11.58 13C11.57 12.62 11.47 12.25 11.3 11.92C11.06 11.4 11.1 11.19 11.12 11.14C11.16 11.13 11.2 11.13 11.23 11.14C11.47 11.15 11.69 11.22 11.9 11.33C12.27 11.51 12.68 11.61 13.09 11.61C13.64 11.61 14.17 11.43 14.62 11.11C15.06 10.79 15.4 10.34 15.57 9.81C15.76 9.28 15.96 9.14 16 9.14C16.03 9.14 16.23 9.28 16.42 9.81C16.6 10.33 16.94 10.77 17.38 11.09C17.83 11.4 18.36 11.57 18.9 11.57C19.31 11.57 19.72 11.47 20.09 11.3C20.3 11.18 20.52 11.12 20.76 11.1C20.79 11.09 20.83 11.09 20.87 11.1C20.87 11.1 20.93 11.36 20.69 11.88C20.52 12.22 20.42 12.59 20.41 12.96C20.4 13.34 20.46 13.72 20.61 14.06C20.75 14.41 20.97 14.73 21.25 14.99C21.52 15.24 21.85 15.44 22.21 15.56C22.74 15.75 22.88 15.94 22.88 15.98C22.88 16.02 22.76 16.23 22.22 16.42L22.25 16.42ZM16 11.93C15.19 11.93 14.41 12.17 13.74 12.61C13.07 13.06 12.55 13.7 12.24 14.44C11.93 15.18 11.85 16 12.01 16.79C12.16 17.58 12.55 18.3 13.12 18.87C13.69 19.44 14.41 19.83 15.2 19.98C15.99 20.14 16.81 20.06 17.55 19.75C18.29 19.44 18.93 18.92 19.38 18.25C19.82 17.59 20.06 16.8 20.06 16C20.06 14.92 19.63 13.88 18.87 13.12C18.11 12.36 17.07 11.93 16 11.93ZM16 19.2C15.36 19.2 14.73 19.01 14.2 18.66C13.67 18.3 13.25 17.8 13.01 17.2C12.77 16.61 12.7 15.96 12.83 15.34C12.96 14.71 13.27 14.13 13.72 13.68C14.17 13.23 14.75 12.93 15.38 12.8C16.01 12.68 16.66 12.75 17.25 13C17.84 13.24 18.34 13.66 18.69 14.2C19.04 14.73 19.23 15.36 19.22 16C19.22 16.85 18.88 17.67 18.28 18.28C17.67 18.88 16.85 19.22 16 19.22L16 19.2Z" fill="#FFFFFF" fill-opacity="1.000000" fill-rule="nonzero"/>
	</g>
</svg>
