<svg width="24.000000" height="24.000000" viewBox="0 0 24 24" fill="none" xmlns="http://www.w3.org/2000/svg" xmlns:xlink="http://www.w3.org/1999/xlink">
	<desc>
			Created with Pixso.
	</desc>
	<defs>
		<clipPath id="clip4_37">
			<rect rx="-0.500000" width="23.000000" height="23.000000" transform="translate(0.500000 0.500000)" fill="white" fill-opacity="0"/>
		</clipPath>
	</defs>
	<rect rx="-0.500000" width="23.000000" height="23.000000" transform="translate(0.500000 0.500000)" fill="#FFFFFF" fill-opacity="0"/>
	<g clip-path="url(#clip4_37)">
		<path d="M16.59 7.52C16.59 7.52 16.6 7.52 16.6 7.52C16.76 7.52 16.91 7.57 17.02 7.66L17.02 7.66C17.11 7.73 17.17 7.84 17.18 7.96L17.18 7.96C17.2 8.05 17.21 8.16 17.21 8.26C17.21 8.31 17.2 8.36 17.2 8.41L17.2 8.4C17.03 10.18 16.3 14.49 15.93 16.48C15.77 17.32 15.46 17.6 15.16 17.63C14.51 17.69 14.01 17.2 13.38 16.78C12.39 16.13 11.83 15.73 10.88 15.1C9.77 14.37 10.49 13.97 11.12 13.31C11.28 13.14 14.16 10.52 14.21 10.29C14.21 10.27 14.22 10.26 14.22 10.24C14.22 10.18 14.19 10.13 14.16 10.09C14.12 10.06 14.07 10.05 14.02 10.05C13.99 10.05 13.95 10.06 13.92 10.07L13.93 10.07C13.83 10.09 12.25 11.13 9.19 13.2C8.86 13.46 8.43 13.63 7.97 13.65L7.97 13.65C7.32 13.57 6.73 13.42 6.17 13.22L6.22 13.23C5.52 13.01 4.96 12.88 5.01 12.5C5.04 12.29 5.31 12.09 5.85 11.88C9.12 10.45 11.3 9.51 12.4 9.05C13.6 8.42 15 7.89 16.47 7.55L16.59 7.52L16.59 7.52ZM11.94 0.76C5.72 0.78 0.67 5.83 0.67 12.06C0.67 18.3 5.73 23.35 11.97 23.35C18.21 23.35 23.26 18.3 23.26 12.06C23.26 5.83 18.22 0.78 12 0.76L12 0.76C11.98 0.76 11.96 0.76 11.94 0.76Z" fill="#BE713C" fill-opacity="1.000000" fill-rule="nonzero"/>
	</g>
</svg>
