<svg width="24.000000" height="24.000000" viewBox="0 0 24 24" fill="none" xmlns="http://www.w3.org/2000/svg" xmlns:xlink="http://www.w3.org/1999/xlink">
	<desc>
			Created with Pixso.
	</desc>
	<defs/>
	<path id="whatsapp-[#128]" d="M18.98 16.94C18.69 17.76 17.54 18.44 16.62 18.63C16 18.77 15.18 18.87 12.42 17.73C9.32 16.45 5.02 11.88 5.02 8.83C5.02 7.29 5.92 5.48 7.48 5.48C8.23 5.48 8.39 5.5 8.64 6.09C8.93 6.79 9.64 8.51 9.72 8.69C10.07 9.41 9.37 9.83 8.86 10.46C8.7 10.65 8.51 10.86 8.72 11.21C8.92 11.56 9.63 12.71 10.67 13.63C12 14.82 13.09 15.21 13.48 15.37C13.77 15.49 14.11 15.46 14.33 15.23C14.59 14.94 14.93 14.46 15.26 13.99C15.5 13.65 15.81 13.61 16.12 13.73C16.34 13.81 19.07 15.07 19.18 15.28C19.27 15.42 19.27 16.12 18.98 16.94ZM12 0L11.99 0C5.38 0 0 5.38 0 12C0 14.62 0.84 17.05 2.28 19.03L0.78 23.49L5.4 22.01C7.29 23.27 9.56 24 12 24C18.61 24 24 18.61 24 12C24 5.38 18.61 0 12 0Z" fill="#BE713C" fill-opacity="1.000000" fill-rule="evenodd"/>
</svg>
